<mxfile host="app.diagrams.net" agent="Mozilla/5.0 (X11; Linux x86_64; rv:133.0) Gecko/20100101 Firefox/133.0" version="25.0.3">
  <diagram name="Page-1" id="ewJkEvwEkv3YmVCJp_y1">
    <mxGraphModel grid="1" page="1" gridSize="10" guides="1" tooltips="1" connect="1" arrows="1" fold="1" pageScale="1" pageWidth="3300" pageHeight="4681" math="0" shadow="0">
      <root>
        <mxCell id="0" />
        <mxCell id="1" parent="0" />
        <mxCell id="61fBXbApF1Y0hZVp9F97-1" value="TODO" style="shape=folder;fontStyle=1;spacingTop=10;tabWidth=40;tabHeight=14;tabPosition=left;html=1;whiteSpace=wrap;align=left;verticalAlign=top;" vertex="1" parent="1">
          <mxGeometry x="-30" y="1478.5" width="370" height="461.5" as="geometry" />
        </mxCell>
        <mxCell id="YE_26TuEQfnDjmXxc6EP-120" value="Concrete Geometry" style="rounded=0;whiteSpace=wrap;html=1;align=left;verticalAlign=top;" vertex="1" parent="1">
          <mxGeometry x="840" y="3624" width="760" height="140" as="geometry" />
        </mxCell>
        <mxCell id="YE_26TuEQfnDjmXxc6EP-67" value="VectorDataExtractor" style="shape=folder;fontStyle=1;spacingTop=10;tabWidth=40;tabHeight=14;tabPosition=left;html=1;whiteSpace=wrap;verticalAlign=top;align=left;" vertex="1" parent="1">
          <mxGeometry x="150" y="2130" width="320" height="150" as="geometry" />
        </mxCell>
        <mxCell id="VQp6HczaZ_-Sfdic1Wj1-54" value="&lt;font style=&quot;font-size: 20px;&quot;&gt;Qt&lt;/font&gt;" style="shape=folder;fontStyle=1;spacingTop=20;tabWidth=40;tabHeight=14;tabPosition=left;html=1;whiteSpace=wrap;spacing=0;horizontal=1;verticalAlign=top;fillColor=#d5e8d4;strokeColor=#82b366;" vertex="1" parent="1">
          <mxGeometry x="700" y="-930" width="860" height="1150" as="geometry" />
        </mxCell>
        <mxCell id="VQp6HczaZ_-Sfdic1Wj1-43" value="&lt;font style=&quot;font-size: 20px;&quot;&gt;OpenGL&lt;/font&gt;" style="shape=folder;fontStyle=1;spacingTop=20;tabWidth=40;tabHeight=14;tabPosition=left;html=1;whiteSpace=wrap;fillColor=#dae8fc;strokeColor=#6c8ebf;spacing=0;horizontal=1;verticalAlign=top;gradientDirection=radial;strokeWidth=1;" vertex="1" parent="1">
          <mxGeometry x="2370" y="-720" width="720" height="1210" as="geometry" />
        </mxCell>
        <mxCell id="YE_26TuEQfnDjmXxc6EP-49" value="&lt;div&gt;PROVIDERS&lt;/div&gt;&lt;div&gt;&lt;br&gt;&lt;/div&gt;" style="shape=folder;fontStyle=1;spacingTop=10;tabWidth=40;tabHeight=14;tabPosition=left;html=1;whiteSpace=wrap;align=left;verticalAlign=top;gradientDirection=radial;" vertex="1" parent="1">
          <mxGeometry y="1020" width="1350" height="430" as="geometry" />
        </mxCell>
        <mxCell id="W0gagIkV84F4mibC6HWt-2" value="&lt;h1 style=&quot;margin-top: 0px;&quot;&gt;&lt;font style=&quot;font-size: 20px;&quot;&gt;Mini Sig&lt;/font&gt;&lt;/h1&gt;&lt;p&gt;&lt;font style=&quot;font-size: 20px;&quot;&gt;Diagramme de classe du projet&lt;/font&gt;&lt;/p&gt;" style="text;html=1;whiteSpace=wrap;overflow=hidden;rounded=0;labelBackgroundColor=none;fontColor=#143642;" vertex="1" parent="1">
          <mxGeometry x="10" y="20" width="290" height="160" as="geometry" />
        </mxCell>
        <mxCell id="Mz-Ej8ue9t3ja8AV73kb-6" value="&lt;p style=&quot;margin:0px;margin-top:4px;text-align:center;&quot;&gt;&lt;br&gt;&lt;b&gt;DataManagment&lt;/b&gt;&lt;/p&gt;&lt;hr size=&quot;1&quot; style=&quot;border-style:solid;&quot;&gt;+ const char* filePath&lt;hr size=&quot;1&quot; style=&quot;border-style:solid;&quot;&gt;&lt;span style=&quot;font-weight: 600; color: rgb(0, 103, 124); white-space: normal;&quot;&gt;+ DataManagment&lt;/span&gt;&lt;span style=&quot;white-space: normal&quot;&gt;();&lt;/span&gt;&lt;pre style=&quot;margin-top:0px; margin-bottom:0px; margin-left:0px; margin-right:0px; -qt-block-indent:0; text-indent:0px;&quot;&gt;&lt;span style=&quot;font-weight:600; color:#00677c;&quot;&gt;+ DataManagment&lt;/span&gt;(&lt;span style=&quot;color:#808000;&quot;&gt;const&lt;/span&gt;&lt;span style=&quot;color:#c0c0c0;&quot;&gt; &lt;/span&gt;&lt;span style=&quot;color:#808000;&quot;&gt;char&lt;/span&gt;*&lt;span style=&quot;color:#c0c0c0;&quot;&gt; &lt;/span&gt;&lt;span style=&quot;color:#092e64;&quot;&gt;Path&lt;/span&gt;);&lt;/pre&gt;&lt;pre style=&quot;margin-top:0px; margin-bottom:0px; margin-left:0px; margin-right:0px; -qt-block-indent:0; text-indent:0px;&quot;&gt;+ ~&lt;span style=&quot;font-weight:600; color:#00677c;&quot;&gt;DataManagment&lt;/span&gt;();&lt;/pre&gt;&lt;pre style=&quot;margin-top:0px; margin-bottom:0px; margin-left:0px; margin-right:0px; -qt-block-indent:0; text-indent:0px;&quot;&gt;+ &lt;span style=&quot;color:#808000;&quot;&gt;const&lt;/span&gt;&lt;span style=&quot;color:#c0c0c0;&quot;&gt; &lt;/span&gt;&lt;span style=&quot;color:#808000;&quot;&gt;char&lt;/span&gt;*&lt;span style=&quot;color:#c0c0c0;&quot;&gt; &lt;/span&gt;&lt;span style=&quot;font-weight:600; color:#00677c;&quot;&gt;GetPath&lt;/span&gt;();&lt;/pre&gt;&lt;style type=&quot;text/css&quot;&gt;p, li { white-space: pre-wrap; }&lt;/style&gt;" style="verticalAlign=top;align=left;overflow=fill;html=1;whiteSpace=wrap;labelBackgroundColor=none;fillColor=#FAE5C7;strokeColor=#0F8B8D;fontColor=#143642;" vertex="1" parent="1">
          <mxGeometry x="576.25" y="1910" width="286.25" height="160" as="geometry" />
        </mxCell>
        <mxCell id="m3QRE2yToenCtiaSld8w-3" value="&lt;p style=&quot;margin:0px;margin-top:4px;text-align:center;&quot;&gt;&lt;i&gt;&amp;lt;&amp;lt;Interface&amp;gt;&amp;gt;&lt;/i&gt;&lt;br&gt;&lt;b&gt;AdapterProjection&lt;/b&gt;&lt;br&gt;&lt;/p&gt;&lt;hr size=&quot;1&quot; style=&quot;border-style:solid;&quot;&gt;&lt;hr size=&quot;1&quot; style=&quot;border-style:solid;&quot;&gt;&lt;p style=&quot;margin:0px;margin-left:4px;&quot;&gt;+ set(String CRS): void&lt;br&gt;+ convert(String CRS, AbstractData : layer): void&lt;br&gt;&lt;/p&gt;&lt;p style=&quot;margin:0px;margin-left:4px;&quot;&gt;+ get() : string CRS&lt;br&gt;&lt;/p&gt;" style="verticalAlign=top;align=left;overflow=fill;html=1;whiteSpace=wrap;labelBackgroundColor=none;fillColor=#d5e8d4;strokeColor=#82b366;" vertex="1" parent="1">
          <mxGeometry y="1740" width="290" height="123.5" as="geometry" />
        </mxCell>
        <mxCell id="VQp6HczaZ_-Sfdic1Wj1-57" value="" style="edgeStyle=orthogonalEdgeStyle;rounded=0;orthogonalLoop=1;jettySize=auto;html=1;entryX=0.5;entryY=0;entryDx=0;entryDy=0;" edge="1" parent="1" source="T-lWKSoQIw2f4ri57Lx8-16" target="T-lWKSoQIw2f4ri57Lx8-21">
          <mxGeometry relative="1" as="geometry">
            <mxPoint x="1370.0000000000005" y="-700.0040000000001" as="sourcePoint" />
            <mxPoint x="2497.9" y="-529.03" as="targetPoint" />
          </mxGeometry>
        </mxCell>
        <mxCell id="YE_26TuEQfnDjmXxc6EP-50" value="&amp;nbsp;GDALManager" style="swimlane;fontStyle=1;align=center;verticalAlign=top;childLayout=stackLayout;horizontal=1;startSize=26;horizontalStack=0;resizeParent=1;resizeParentMax=0;resizeLast=0;collapsible=1;marginBottom=0;whiteSpace=wrap;html=1;fillColor=#d5e8d4;strokeColor=#82b366;" vertex="1" parent="1">
          <mxGeometry y="1520" width="160" height="86" as="geometry" />
        </mxCell>
        <mxCell id="YE_26TuEQfnDjmXxc6EP-51" value="+ field: type" style="text;strokeColor=none;fillColor=none;align=left;verticalAlign=top;spacingLeft=4;spacingRight=4;overflow=hidden;rotatable=0;points=[[0,0.5],[1,0.5]];portConstraint=eastwest;whiteSpace=wrap;html=1;fontColor=#143642;" vertex="1" parent="YE_26TuEQfnDjmXxc6EP-50">
          <mxGeometry y="26" width="160" height="26" as="geometry" />
        </mxCell>
        <mxCell id="YE_26TuEQfnDjmXxc6EP-52" value="" style="line;strokeWidth=1;fillColor=none;align=left;verticalAlign=middle;spacingTop=-1;spacingLeft=3;spacingRight=3;rotatable=0;labelPosition=right;points=[];portConstraint=eastwest;strokeColor=inherit;fontColor=#143642;" vertex="1" parent="YE_26TuEQfnDjmXxc6EP-50">
          <mxGeometry y="52" width="160" height="8" as="geometry" />
        </mxCell>
        <mxCell id="YE_26TuEQfnDjmXxc6EP-53" value="+ method(type): type" style="text;strokeColor=none;fillColor=none;align=left;verticalAlign=top;spacingLeft=4;spacingRight=4;overflow=hidden;rotatable=0;points=[[0,0.5],[1,0.5]];portConstraint=eastwest;whiteSpace=wrap;html=1;fontColor=#143642;" vertex="1" parent="YE_26TuEQfnDjmXxc6EP-50">
          <mxGeometry y="60" width="160" height="26" as="geometry" />
        </mxCell>
        <mxCell id="YE_26TuEQfnDjmXxc6EP-62" style="edgeStyle=orthogonalEdgeStyle;rounded=0;orthogonalLoop=1;jettySize=auto;html=1;" edge="1" parent="1" source="YE_26TuEQfnDjmXxc6EP-55" target="YE_26TuEQfnDjmXxc6EP-50">
          <mxGeometry relative="1" as="geometry">
            <Array as="points">
              <mxPoint x="150" y="1562.5" />
              <mxPoint x="150" y="1562.5" />
            </Array>
          </mxGeometry>
        </mxCell>
        <mxCell id="YE_26TuEQfnDjmXxc6EP-63" value="Uses" style="edgeLabel;html=1;align=center;verticalAlign=middle;resizable=0;points=[];" connectable="0" vertex="1" parent="YE_26TuEQfnDjmXxc6EP-62">
          <mxGeometry x="-0.4335" y="-3" relative="1" as="geometry">
            <mxPoint as="offset" />
          </mxGeometry>
        </mxCell>
        <mxCell id="YE_26TuEQfnDjmXxc6EP-55" value="AdapterReprojection" style="swimlane;fontStyle=1;align=center;verticalAlign=top;childLayout=stackLayout;horizontal=1;startSize=26;horizontalStack=0;resizeParent=1;resizeParentMax=0;resizeLast=0;collapsible=1;marginBottom=0;whiteSpace=wrap;html=1;strokeColor=#82b366;fillColor=#d5e8d4;" vertex="1" parent="1">
          <mxGeometry y="1630" width="160" height="86" as="geometry" />
        </mxCell>
        <mxCell id="YE_26TuEQfnDjmXxc6EP-56" value="+ field: type" style="text;strokeColor=none;fillColor=none;align=left;verticalAlign=top;spacingLeft=4;spacingRight=4;overflow=hidden;rotatable=0;points=[[0,0.5],[1,0.5]];portConstraint=eastwest;whiteSpace=wrap;html=1;fontColor=#143642;" vertex="1" parent="YE_26TuEQfnDjmXxc6EP-55">
          <mxGeometry y="26" width="160" height="26" as="geometry" />
        </mxCell>
        <mxCell id="YE_26TuEQfnDjmXxc6EP-57" value="" style="line;strokeWidth=1;fillColor=none;align=left;verticalAlign=middle;spacingTop=-1;spacingLeft=3;spacingRight=3;rotatable=0;labelPosition=right;points=[];portConstraint=eastwest;strokeColor=inherit;fontColor=#143642;" vertex="1" parent="YE_26TuEQfnDjmXxc6EP-55">
          <mxGeometry y="52" width="160" height="8" as="geometry" />
        </mxCell>
        <mxCell id="YE_26TuEQfnDjmXxc6EP-58" value="+ method(type): type" style="text;strokeColor=none;fillColor=none;align=left;verticalAlign=top;spacingLeft=4;spacingRight=4;overflow=hidden;rotatable=0;points=[[0,0.5],[1,0.5]];portConstraint=eastwest;whiteSpace=wrap;html=1;fontColor=#143642;" vertex="1" parent="YE_26TuEQfnDjmXxc6EP-55">
          <mxGeometry y="60" width="160" height="26" as="geometry" />
        </mxCell>
        <mxCell id="YE_26TuEQfnDjmXxc6EP-87" value="&lt;p style=&quot;margin:0px;margin-top:4px;text-align:center;&quot;&gt;&lt;i&gt;&amp;lt;&amp;lt;Interface&amp;gt;&amp;gt;&lt;/i&gt;&lt;/p&gt;&lt;p style=&quot;margin:0px;margin-top:4px;text-align:center;&quot;&gt;&lt;b&gt;Geometry&lt;/b&gt;&lt;/p&gt;&lt;hr size=&quot;1&quot; style=&quot;border-style:solid;&quot;&gt;" style="verticalAlign=top;align=left;overflow=fill;html=1;whiteSpace=wrap;labelBackgroundColor=none;fillColor=#f8cecc;strokeColor=#b85450;" vertex="1" parent="1">
          <mxGeometry x="1220" y="3380" width="200" height="80" as="geometry" />
        </mxCell>
        <mxCell id="YE_26TuEQfnDjmXxc6EP-88" value="AbsractGeometry" style="swimlane;fontStyle=1;align=center;verticalAlign=top;childLayout=stackLayout;horizontal=1;startSize=26;horizontalStack=0;resizeParent=1;resizeParentMax=0;resizeLast=0;collapsible=1;marginBottom=0;whiteSpace=wrap;html=1;strokeColor=#b85450;fillColor=#f8cecc;" vertex="1" parent="1">
          <mxGeometry x="1240" y="3514" width="160" height="86" as="geometry" />
        </mxCell>
        <mxCell id="YE_26TuEQfnDjmXxc6EP-89" value="TODO" style="text;strokeColor=none;fillColor=none;align=left;verticalAlign=top;spacingLeft=4;spacingRight=4;overflow=hidden;rotatable=0;points=[[0,0.5],[1,0.5]];portConstraint=eastwest;whiteSpace=wrap;html=1;fontColor=#143642;" vertex="1" parent="YE_26TuEQfnDjmXxc6EP-88">
          <mxGeometry y="26" width="160" height="26" as="geometry" />
        </mxCell>
        <mxCell id="YE_26TuEQfnDjmXxc6EP-90" value="" style="line;strokeWidth=1;fillColor=none;align=left;verticalAlign=middle;spacingTop=-1;spacingLeft=3;spacingRight=3;rotatable=0;labelPosition=right;points=[];portConstraint=eastwest;strokeColor=inherit;fontColor=#143642;" vertex="1" parent="YE_26TuEQfnDjmXxc6EP-88">
          <mxGeometry y="52" width="160" height="8" as="geometry" />
        </mxCell>
        <mxCell id="YE_26TuEQfnDjmXxc6EP-91" value="TODO" style="text;strokeColor=none;fillColor=none;align=left;verticalAlign=top;spacingLeft=4;spacingRight=4;overflow=hidden;rotatable=0;points=[[0,0.5],[1,0.5]];portConstraint=eastwest;whiteSpace=wrap;html=1;fontColor=#143642;" vertex="1" parent="YE_26TuEQfnDjmXxc6EP-88">
          <mxGeometry y="60" width="160" height="26" as="geometry" />
        </mxCell>
        <mxCell id="YE_26TuEQfnDjmXxc6EP-93" value="LineString" style="swimlane;fontStyle=1;align=center;verticalAlign=top;childLayout=stackLayout;horizontal=1;startSize=26;horizontalStack=0;resizeParent=1;resizeParentMax=0;resizeLast=0;collapsible=1;marginBottom=0;whiteSpace=wrap;html=1;strokeColor=#b85450;fillColor=#f8cecc;" vertex="1" parent="1">
          <mxGeometry x="1060" y="3654" width="160" height="86" as="geometry" />
        </mxCell>
        <mxCell id="YE_26TuEQfnDjmXxc6EP-94" value="TODO" style="text;strokeColor=none;fillColor=none;align=left;verticalAlign=top;spacingLeft=4;spacingRight=4;overflow=hidden;rotatable=0;points=[[0,0.5],[1,0.5]];portConstraint=eastwest;whiteSpace=wrap;html=1;fontColor=#143642;" vertex="1" parent="YE_26TuEQfnDjmXxc6EP-93">
          <mxGeometry y="26" width="160" height="26" as="geometry" />
        </mxCell>
        <mxCell id="YE_26TuEQfnDjmXxc6EP-95" value="" style="line;strokeWidth=1;fillColor=none;align=left;verticalAlign=middle;spacingTop=-1;spacingLeft=3;spacingRight=3;rotatable=0;labelPosition=right;points=[];portConstraint=eastwest;strokeColor=inherit;fontColor=#143642;" vertex="1" parent="YE_26TuEQfnDjmXxc6EP-93">
          <mxGeometry y="52" width="160" height="8" as="geometry" />
        </mxCell>
        <mxCell id="YE_26TuEQfnDjmXxc6EP-96" value="TODO" style="text;strokeColor=none;fillColor=none;align=left;verticalAlign=top;spacingLeft=4;spacingRight=4;overflow=hidden;rotatable=0;points=[[0,0.5],[1,0.5]];portConstraint=eastwest;whiteSpace=wrap;html=1;fontColor=#143642;" vertex="1" parent="YE_26TuEQfnDjmXxc6EP-93">
          <mxGeometry y="60" width="160" height="26" as="geometry" />
        </mxCell>
        <mxCell id="YE_26TuEQfnDjmXxc6EP-97" value="Point" style="swimlane;fontStyle=1;align=center;verticalAlign=top;childLayout=stackLayout;horizontal=1;startSize=26;horizontalStack=0;resizeParent=1;resizeParentMax=0;resizeLast=0;collapsible=1;marginBottom=0;whiteSpace=wrap;html=1;strokeColor=#b85450;fillColor=#f8cecc;" vertex="1" parent="1">
          <mxGeometry x="1240" y="3654" width="160" height="86" as="geometry" />
        </mxCell>
        <mxCell id="YE_26TuEQfnDjmXxc6EP-98" value="TODO" style="text;strokeColor=none;fillColor=none;align=left;verticalAlign=top;spacingLeft=4;spacingRight=4;overflow=hidden;rotatable=0;points=[[0,0.5],[1,0.5]];portConstraint=eastwest;whiteSpace=wrap;html=1;fontColor=#143642;" vertex="1" parent="YE_26TuEQfnDjmXxc6EP-97">
          <mxGeometry y="26" width="160" height="26" as="geometry" />
        </mxCell>
        <mxCell id="YE_26TuEQfnDjmXxc6EP-99" value="" style="line;strokeWidth=1;fillColor=none;align=left;verticalAlign=middle;spacingTop=-1;spacingLeft=3;spacingRight=3;rotatable=0;labelPosition=right;points=[];portConstraint=eastwest;strokeColor=inherit;fontColor=#143642;" vertex="1" parent="YE_26TuEQfnDjmXxc6EP-97">
          <mxGeometry y="52" width="160" height="8" as="geometry" />
        </mxCell>
        <mxCell id="YE_26TuEQfnDjmXxc6EP-100" value="TODO" style="text;strokeColor=none;fillColor=none;align=left;verticalAlign=top;spacingLeft=4;spacingRight=4;overflow=hidden;rotatable=0;points=[[0,0.5],[1,0.5]];portConstraint=eastwest;whiteSpace=wrap;html=1;fontColor=#143642;" vertex="1" parent="YE_26TuEQfnDjmXxc6EP-97">
          <mxGeometry y="60" width="160" height="26" as="geometry" />
        </mxCell>
        <mxCell id="YE_26TuEQfnDjmXxc6EP-101" value="Surface" style="swimlane;fontStyle=1;align=center;verticalAlign=top;childLayout=stackLayout;horizontal=1;startSize=26;horizontalStack=0;resizeParent=1;resizeParentMax=0;resizeLast=0;collapsible=1;marginBottom=0;whiteSpace=wrap;html=1;strokeColor=#b85450;fillColor=#f8cecc;" vertex="1" parent="1">
          <mxGeometry x="1420" y="3654" width="160" height="86" as="geometry" />
        </mxCell>
        <mxCell id="YE_26TuEQfnDjmXxc6EP-102" value="TODO" style="text;strokeColor=none;fillColor=none;align=left;verticalAlign=top;spacingLeft=4;spacingRight=4;overflow=hidden;rotatable=0;points=[[0,0.5],[1,0.5]];portConstraint=eastwest;whiteSpace=wrap;html=1;fontColor=#143642;" vertex="1" parent="YE_26TuEQfnDjmXxc6EP-101">
          <mxGeometry y="26" width="160" height="26" as="geometry" />
        </mxCell>
        <mxCell id="YE_26TuEQfnDjmXxc6EP-103" value="" style="line;strokeWidth=1;fillColor=none;align=left;verticalAlign=middle;spacingTop=-1;spacingLeft=3;spacingRight=3;rotatable=0;labelPosition=right;points=[];portConstraint=eastwest;strokeColor=inherit;fontColor=#143642;" vertex="1" parent="YE_26TuEQfnDjmXxc6EP-101">
          <mxGeometry y="52" width="160" height="8" as="geometry" />
        </mxCell>
        <mxCell id="YE_26TuEQfnDjmXxc6EP-104" value="TODO" style="text;strokeColor=none;fillColor=none;align=left;verticalAlign=top;spacingLeft=4;spacingRight=4;overflow=hidden;rotatable=0;points=[[0,0.5],[1,0.5]];portConstraint=eastwest;whiteSpace=wrap;html=1;fontColor=#143642;" vertex="1" parent="YE_26TuEQfnDjmXxc6EP-101">
          <mxGeometry y="60" width="160" height="26" as="geometry" />
        </mxCell>
        <mxCell id="YE_26TuEQfnDjmXxc6EP-105" value="" style="endArrow=block;dashed=1;endFill=0;endSize=12;html=1;rounded=0;" edge="1" parent="1" source="YE_26TuEQfnDjmXxc6EP-88" target="YE_26TuEQfnDjmXxc6EP-87">
          <mxGeometry width="160" relative="1" as="geometry">
            <mxPoint x="820" y="3460" as="sourcePoint" />
            <mxPoint x="820" y="3564" as="targetPoint" />
            <Array as="points" />
          </mxGeometry>
        </mxCell>
        <mxCell id="YE_26TuEQfnDjmXxc6EP-106" value="" style="endArrow=block;dashed=1;endFill=0;endSize=12;html=1;rounded=0;" edge="1" parent="1" source="YE_26TuEQfnDjmXxc6EP-97" target="YE_26TuEQfnDjmXxc6EP-88">
          <mxGeometry width="160" relative="1" as="geometry">
            <mxPoint x="1319.57" y="3654" as="sourcePoint" />
            <mxPoint x="1319.57" y="3600" as="targetPoint" />
            <Array as="points" />
          </mxGeometry>
        </mxCell>
        <mxCell id="YE_26TuEQfnDjmXxc6EP-110" value="" style="endArrow=block;dashed=1;endFill=0;endSize=12;html=1;rounded=0;entryX=1.009;entryY=0.301;entryDx=0;entryDy=0;entryPerimeter=0;" edge="1" parent="1" source="YE_26TuEQfnDjmXxc6EP-101" target="YE_26TuEQfnDjmXxc6EP-91">
          <mxGeometry width="160" relative="1" as="geometry">
            <mxPoint x="1480" y="3634" as="sourcePoint" />
            <mxPoint x="1480" y="3580" as="targetPoint" />
            <Array as="points">
              <mxPoint x="1500" y="3584" />
            </Array>
          </mxGeometry>
        </mxCell>
        <mxCell id="YE_26TuEQfnDjmXxc6EP-111" value="" style="endArrow=block;dashed=1;endFill=0;endSize=12;html=1;rounded=0;" edge="1" parent="1" source="YE_26TuEQfnDjmXxc6EP-93">
          <mxGeometry width="160" relative="1" as="geometry">
            <mxPoint x="1200" y="3600" as="sourcePoint" />
            <mxPoint x="1241" y="3584" as="targetPoint" />
            <Array as="points">
              <mxPoint x="1140" y="3584" />
            </Array>
          </mxGeometry>
        </mxCell>
        <mxCell id="YE_26TuEQfnDjmXxc6EP-112" value="&lt;div&gt;GeometyCollection&lt;/div&gt;&lt;div&gt;&lt;br&gt;&lt;/div&gt;" style="swimlane;fontStyle=1;align=center;verticalAlign=top;childLayout=stackLayout;horizontal=1;startSize=26;horizontalStack=0;resizeParent=1;resizeParentMax=0;resizeLast=0;collapsible=1;marginBottom=0;whiteSpace=wrap;html=1;strokeColor=#b85450;fillColor=#f8cecc;" vertex="1" parent="1">
          <mxGeometry x="880" y="3654" width="160" height="86" as="geometry" />
        </mxCell>
        <mxCell id="YE_26TuEQfnDjmXxc6EP-113" value="TODO" style="text;strokeColor=none;fillColor=none;align=left;verticalAlign=top;spacingLeft=4;spacingRight=4;overflow=hidden;rotatable=0;points=[[0,0.5],[1,0.5]];portConstraint=eastwest;whiteSpace=wrap;html=1;fontColor=#143642;" vertex="1" parent="YE_26TuEQfnDjmXxc6EP-112">
          <mxGeometry y="26" width="160" height="26" as="geometry" />
        </mxCell>
        <mxCell id="YE_26TuEQfnDjmXxc6EP-114" value="" style="line;strokeWidth=1;fillColor=none;align=left;verticalAlign=middle;spacingTop=-1;spacingLeft=3;spacingRight=3;rotatable=0;labelPosition=right;points=[];portConstraint=eastwest;strokeColor=inherit;fontColor=#143642;" vertex="1" parent="YE_26TuEQfnDjmXxc6EP-112">
          <mxGeometry y="52" width="160" height="8" as="geometry" />
        </mxCell>
        <mxCell id="YE_26TuEQfnDjmXxc6EP-115" value="TODO" style="text;strokeColor=none;fillColor=none;align=left;verticalAlign=top;spacingLeft=4;spacingRight=4;overflow=hidden;rotatable=0;points=[[0,0.5],[1,0.5]];portConstraint=eastwest;whiteSpace=wrap;html=1;fontColor=#143642;" vertex="1" parent="YE_26TuEQfnDjmXxc6EP-112">
          <mxGeometry y="60" width="160" height="26" as="geometry" />
        </mxCell>
        <mxCell id="YE_26TuEQfnDjmXxc6EP-116" value="" style="endArrow=block;dashed=1;endFill=0;endSize=12;html=1;rounded=0;" edge="1" parent="1" source="YE_26TuEQfnDjmXxc6EP-112" target="YE_26TuEQfnDjmXxc6EP-88">
          <mxGeometry width="160" relative="1" as="geometry">
            <mxPoint x="1000" y="3614" as="sourcePoint" />
            <mxPoint x="1070" y="3560" as="targetPoint" />
            <Array as="points">
              <mxPoint x="960" y="3557" />
            </Array>
          </mxGeometry>
        </mxCell>
        <mxCell id="iqyvSb_KlL2L7tUEm-mz-1" style="edgeStyle=orthogonalEdgeStyle;rounded=0;orthogonalLoop=1;jettySize=auto;html=1;entryX=0.5;entryY=0;entryDx=0;entryDy=0;" edge="1" parent="1" source="M28GYR8N4w48KDMcxOb5-6" target="Mz-Ej8ue9t3ja8AV73kb-6">
          <mxGeometry relative="1" as="geometry">
            <Array as="points">
              <mxPoint x="637" y="1780" />
              <mxPoint x="719" y="1780" />
            </Array>
          </mxGeometry>
        </mxCell>
        <mxCell id="M28GYR8N4w48KDMcxOb5-6" value="&lt;p style=&quot;margin:0px;margin-top:4px;text-align:center;&quot;&gt;&lt;b&gt;VectorData&lt;br&gt;&lt;/b&gt;&lt;/p&gt;&lt;hr size=&quot;1&quot; style=&quot;border-style:solid;&quot;&gt;&amp;nbsp;&lt;br&gt;&lt;hr size=&quot;1&quot; style=&quot;border-style:solid;&quot;&gt;+ VectorData();&lt;br&gt;&lt;pre style=&quot;margin-top:0px; margin-bottom:0px; margin-left:0px; margin-right:0px; -qt-block-indent:0; text-indent:0px;&quot;&gt;&lt;span style=&quot;font-weight:600; color:#00677c;&quot;&gt;+ VectorData&lt;/span&gt;(&lt;span style=&quot;color:#808000;&quot;&gt;const&lt;/span&gt;&lt;span style=&quot;color:#c0c0c0;&quot;&gt; &lt;/span&gt;&lt;span style=&quot;color:#808000;&quot;&gt;char&lt;/span&gt;*&lt;span style=&quot;color:#c0c0c0;&quot;&gt; &lt;/span&gt;&lt;span style=&quot;color:#092e64;&quot;&gt;path&lt;/span&gt;);&lt;/pre&gt;+ ~&lt;span style=&quot;font-weight:600; color:#00677c;&quot;&gt;VectorData&lt;/span&gt;();&lt;br&gt;&lt;pre style=&quot;margin-top:0px; margin-bottom:0px; margin-left:0px; margin-right:0px; -qt-block-indent:0; text-indent:0px;&quot;&gt;&lt;span style=&quot;color:#800080;&quot;&gt;+ std&lt;/span&gt;::&lt;span style=&quot;color:#800080;&quot;&gt;vector&lt;/span&gt;&amp;lt;&lt;span style=&quot;color:#800080;&quot;&gt;std&lt;/span&gt;::&lt;span style=&quot;color:#800080;&quot;&gt;vector&lt;/span&gt;&amp;lt;&lt;span style=&quot;color:#800080;&quot;&gt;std&lt;/span&gt;::&lt;span style=&quot;color:#800080;&quot;&gt;vector&lt;/span&gt;&amp;lt;&lt;span style=&quot;color:#800080;&quot;&gt;std&lt;/span&gt;::&lt;span style=&quot;color:#800080;&quot;&gt;pair&lt;/span&gt;&amp;lt;&lt;span style=&quot;color:#808000;&quot;&gt;float&lt;/span&gt;,&lt;span style=&quot;color:#c0c0c0;&quot;&gt; &lt;/span&gt;&lt;span style=&quot;color:#808000;&quot;&gt;float&lt;/span&gt;&amp;gt;&amp;gt;&amp;gt;&amp;gt;&lt;span style=&quot;color:#c0c0c0;&quot;&gt; &lt;/span&gt;&lt;span style=&quot;font-weight:600; color:#00677c;&quot;&gt;GetPolygons&lt;/span&gt;();&lt;/pre&gt;&lt;div&gt;&lt;span style=&quot;color:#800080;&quot;&gt;+ std&lt;/span&gt;::&lt;span style=&quot;color:#800080;&quot;&gt;vector&lt;/span&gt;&amp;lt;&lt;span style=&quot;color:#800080;&quot;&gt;std&lt;/span&gt;::&lt;span style=&quot;color:#800080;&quot;&gt;vector&lt;/span&gt;&amp;lt;&lt;span style=&quot;color:#800080;&quot;&gt;std&lt;/span&gt;::&lt;span style=&quot;color:#800080;&quot;&gt;pair&lt;/span&gt;&amp;lt;&lt;span style=&quot;color:#808000;&quot;&gt;float&lt;/span&gt;,&lt;span style=&quot;color:#c0c0c0;&quot;&gt; &lt;/span&gt;&lt;span style=&quot;color:#808000;&quot;&gt;float&lt;/span&gt;&amp;gt;&amp;gt;&amp;gt;&lt;span style=&quot;color:#c0c0c0;&quot;&gt; &lt;/span&gt;&lt;span style=&quot;font-weight:600; color:#00677c;&quot;&gt;GetLineStrings&lt;/span&gt;();&lt;/div&gt;&lt;div&gt;&lt;span style=&quot;color:#800080;&quot;&gt;+ std&lt;/span&gt;::&lt;span style=&quot;color:#800080;&quot;&gt;vector&lt;/span&gt;&amp;lt;&lt;span style=&quot;color:#800080;&quot;&gt;std&lt;/span&gt;::&lt;span style=&quot;color:#800080;&quot;&gt;pair&lt;/span&gt;&amp;lt;&lt;span style=&quot;color:#808000;&quot;&gt;float&lt;/span&gt;,&lt;span style=&quot;color:#c0c0c0;&quot;&gt; &lt;/span&gt;&lt;span style=&quot;color:#808000;&quot;&gt;float&lt;/span&gt;&amp;gt;&amp;gt;&lt;span style=&quot;color:#c0c0c0;&quot;&gt; &lt;/span&gt;&lt;span style=&quot;font-weight:600; color:#00677c;&quot;&gt;GetPoints&lt;/span&gt;();&lt;style type=&quot;text/css&quot;&gt;p, li { white-space: pre-wrap; }&lt;/style&gt;&lt;/div&gt;" style="verticalAlign=top;align=left;overflow=fill;html=1;whiteSpace=wrap;fillColor=#ffe6cc;strokeColor=#d79b00;" vertex="1" parent="1">
          <mxGeometry x="540" y="1580" width="580" height="160" as="geometry" />
        </mxCell>
        <mxCell id="_OyKHYViLCONZgguETRh-19" style="edgeStyle=orthogonalEdgeStyle;rounded=0;orthogonalLoop=1;jettySize=auto;html=1;entryX=0;entryY=0.5;entryDx=0;entryDy=0;" edge="1" parent="1" source="_OyKHYViLCONZgguETRh-18" target="M28GYR8N4w48KDMcxOb5-6">
          <mxGeometry relative="1" as="geometry" />
        </mxCell>
        <mxCell id="_OyKHYViLCONZgguETRh-18" value="&lt;p style=&quot;margin:0px;margin-top:4px;text-align:center;&quot;&gt;&lt;b&gt;CityGMLFile&lt;/b&gt;&lt;/p&gt;&lt;hr size=&quot;1&quot; style=&quot;border-style:solid;&quot;&gt;&lt;br&gt;&lt;hr size=&quot;1&quot; style=&quot;border-style:solid;&quot;&gt;&amp;nbsp; &lt;br&gt;&lt;div&gt;&lt;br&gt;&lt;/div&gt;" style="verticalAlign=top;align=left;overflow=fill;html=1;whiteSpace=wrap;fillColor=#ffe6cc;strokeColor=#d79b00;" vertex="1" parent="1">
          <mxGeometry x="380" y="1480" width="195" height="76" as="geometry" />
        </mxCell>
        <mxCell id="iqyvSb_KlL2L7tUEm-mz-4" value="DataProvider" style="swimlane;fontStyle=1;align=center;verticalAlign=top;childLayout=stackLayout;horizontal=1;startSize=26;horizontalStack=0;resizeParent=1;resizeParentMax=0;resizeLast=0;collapsible=1;marginBottom=0;whiteSpace=wrap;html=1;fillColor=#d5e8d4;strokeColor=#82b366;" vertex="1" parent="1">
          <mxGeometry x="1020" y="1150" width="290" height="178" as="geometry" />
        </mxCell>
        <mxCell id="iqyvSb_KlL2L7tUEm-mz-5" value="&lt;pre style=&quot;margin-top:0px; margin-bottom:0px; margin-left:0px; margin-right:0px; -qt-block-indent:0; text-indent:0px;&quot;&gt;&lt;span style=&quot;color:#808000;&quot;&gt;const&lt;/span&gt;&lt;span style=&quot;color:#c0c0c0;&quot;&gt; &lt;/span&gt;&lt;span style=&quot;color:#808000;&quot;&gt;char&lt;/span&gt;*&lt;span style=&quot;color:#c0c0c0;&quot;&gt; &lt;/span&gt;url;&lt;/pre&gt;&lt;span style=&quot;color:#800080;&quot;&gt;GDALDataset&lt;/span&gt;*&lt;span style=&quot;color:#c0c0c0;&quot;&gt; &lt;/span&gt;&lt;span style=&quot;color:#800000;&quot;&gt;m_dataset&lt;/span&gt;;&lt;br&gt;&lt;pre style=&quot;margin-top:0px; margin-bottom:0px; margin-left:0px; margin-right:0px; -qt-block-indent:0; text-indent:0px;&quot;&gt;&lt;span style=&quot;color:#808000;&quot;&gt;char&lt;/span&gt;**&lt;span style=&quot;color:#c0c0c0;&quot;&gt; &lt;/span&gt;&lt;span style=&quot;color:#800000;&quot;&gt;m_metadata&lt;/span&gt;;&lt;/pre&gt;&lt;style type=&quot;text/css&quot;&gt;p, li { white-space: pre-wrap; }&lt;/style&gt;" style="text;strokeColor=none;fillColor=none;align=left;verticalAlign=top;spacingLeft=4;spacingRight=4;overflow=hidden;rotatable=0;points=[[0,0.5],[1,0.5]];portConstraint=eastwest;whiteSpace=wrap;html=1;" vertex="1" parent="iqyvSb_KlL2L7tUEm-mz-4">
          <mxGeometry y="26" width="290" height="64" as="geometry" />
        </mxCell>
        <mxCell id="iqyvSb_KlL2L7tUEm-mz-6" value="" style="line;strokeWidth=1;fillColor=none;align=left;verticalAlign=middle;spacingTop=-1;spacingLeft=3;spacingRight=3;rotatable=0;labelPosition=right;points=[];portConstraint=eastwest;strokeColor=inherit;" vertex="1" parent="iqyvSb_KlL2L7tUEm-mz-4">
          <mxGeometry y="90" width="290" height="8" as="geometry" />
        </mxCell>
        <mxCell id="iqyvSb_KlL2L7tUEm-mz-7" value="&lt;pre style=&quot;margin-top:0px; margin-bottom:0px; margin-left:0px; margin-right:0px; -qt-block-indent:0; text-indent:0px;&quot;&gt;&lt;span style=&quot;font-weight:600; color:#00677c;&quot;&gt;+ DataProvider&lt;/span&gt;();&lt;/pre&gt;&lt;span style=&quot;color:#800080;&quot;&gt;+ GDALDataset&lt;/span&gt;*&lt;span style=&quot;color:#c0c0c0;&quot;&gt; &lt;/span&gt;&lt;span style=&quot;font-weight:600; color:#00677c;&quot;&gt;getDataset&lt;/span&gt;()&lt;span style=&quot;color:#c0c0c0;&quot;&gt; &lt;/span&gt;;&lt;br&gt;&lt;pre style=&quot;-qt-paragraph-type:empty; margin-top:0px; margin-bottom:0px; margin-left:0px; margin-right:0px; -qt-block-indent:0; text-indent:0px;&quot;&gt;&lt;span style=&quot;color:#808000;&quot;&gt;+ void&lt;/span&gt;&lt;span style=&quot;font-weight:600; color:#00677c;&quot;&gt;displayMetadata&lt;/span&gt;();&lt;/pre&gt;&lt;pre style=&quot;-qt-paragraph-type:empty; margin-top:0px; margin-bottom:0px; margin-left:0px; margin-right:0px; -qt-block-indent:0; text-indent:0px;&quot;&gt;&lt;span style=&quot;color:#808000;&quot;&gt;+ bool&lt;/span&gt;&lt;span style=&quot;font-weight:600; color:#00677c;&quot;&gt;isEmpty&lt;/span&gt;();&lt;/pre&gt;&lt;pre style=&quot;-qt-paragraph-type:empty; margin-top:0px; margin-bottom:0px; margin-left:0px; margin-right:0px; -qt-block-indent:0; text-indent:0px;&quot;&gt;+ ~&lt;span style=&quot;font-weight:600; color:#00677c;&quot;&gt;DataProvider&lt;/span&gt;();&lt;/pre&gt;" style="text;strokeColor=none;fillColor=none;align=left;verticalAlign=top;spacingLeft=4;spacingRight=4;overflow=hidden;rotatable=0;points=[[0,0.5],[1,0.5]];portConstraint=eastwest;whiteSpace=wrap;html=1;" vertex="1" parent="iqyvSb_KlL2L7tUEm-mz-4">
          <mxGeometry y="98" width="290" height="80" as="geometry" />
        </mxCell>
        <mxCell id="iqyvSb_KlL2L7tUEm-mz-8" value="API_WMS" style="swimlane;fontStyle=1;align=center;verticalAlign=top;childLayout=stackLayout;horizontal=1;startSize=26;horizontalStack=0;resizeParent=1;resizeParentMax=0;resizeLast=0;collapsible=1;marginBottom=0;whiteSpace=wrap;html=1;fillColor=#d5e8d4;strokeColor=#82b366;" vertex="1" parent="1">
          <mxGeometry x="20" y="1320" width="850" height="110" as="geometry" />
        </mxCell>
        <mxCell id="iqyvSb_KlL2L7tUEm-mz-10" value="" style="line;strokeWidth=1;fillColor=none;align=left;verticalAlign=middle;spacingTop=-1;spacingLeft=3;spacingRight=3;rotatable=0;labelPosition=right;points=[];portConstraint=eastwest;strokeColor=inherit;" vertex="1" parent="iqyvSb_KlL2L7tUEm-mz-8">
          <mxGeometry y="26" width="850" height="8" as="geometry" />
        </mxCell>
        <mxCell id="iqyvSb_KlL2L7tUEm-mz-11" value="&lt;pre style=&quot;margin-top:0px; margin-bottom:0px; margin-left:0px; margin-right:0px; -qt-block-indent:0; text-indent:0px;&quot;&gt;&lt;span style=&quot;font-weight:600; color:#00677c;&quot;&gt;API_WMS&lt;/span&gt;(&lt;span style=&quot;color:#808000;&quot;&gt;const&lt;/span&gt;&lt;span style=&quot;color:#c0c0c0;&quot;&gt; &lt;/span&gt;&lt;span style=&quot;color:#808000;&quot;&gt;char&lt;/span&gt;*&lt;span style=&quot;color:#c0c0c0;&quot;&gt; &lt;/span&gt;&lt;span style=&quot;color:#092e64;&quot;&gt;link&lt;/span&gt;)&lt;span style=&quot;color:#c0c0c0;&quot;&gt; &lt;/span&gt;;&lt;/pre&gt;&lt;span style=&quot;color:#808000;&quot;&gt;void&lt;/span&gt;&lt;span style=&quot;font-weight:600; color:#00677c;&quot;&gt;loadDataset&lt;/span&gt;();&lt;pre style=&quot;-qt-paragraph-type:empty; margin-top:0px; margin-bottom:0px; margin-left:0px; margin-right:0px; -qt-block-indent:0; text-indent:0px;&quot;&gt;&lt;span style=&quot;color:#808000;&quot;&gt;void&lt;/span&gt;&lt;span style=&quot;font-weight:600; color:#00677c;&quot;&gt;downloadTileToGeoTiff&lt;/span&gt;(&lt;span style=&quot;color:#808000;&quot;&gt;const&lt;/span&gt;&lt;span style=&quot;color:#808000;&quot;&gt;char&lt;/span&gt;*&lt;span style=&quot;color:#092e64;&quot;&gt;layerName&lt;/span&gt;,&lt;span style=&quot;color:#808000;&quot;&gt;const&lt;/span&gt;&lt;span style=&quot;color:#808000;&quot;&gt;char&lt;/span&gt;*&lt;span style=&quot;color:#092e64;&quot;&gt;outputFile&lt;/span&gt;,&lt;span style=&quot;color:#808000;&quot;&gt;int&lt;/span&gt;&lt;span style=&quot;color:#092e64;&quot;&gt;zoom&lt;/span&gt;,&lt;span style=&quot;color:#808000;&quot;&gt;int&lt;/span&gt;&lt;span style=&quot;color:#092e64;&quot;&gt;row&lt;/span&gt;,&lt;span style=&quot;color:#808000;&quot;&gt;int&lt;/span&gt;&lt;span style=&quot;color:#092e64;&quot;&gt;col&lt;/span&gt;);&lt;/pre&gt;&lt;pre style=&quot;-qt-paragraph-type:empty; margin-top:0px; margin-bottom:0px; margin-left:0px; margin-right:0px; -qt-block-indent:0; text-indent:0px;&quot;&gt;&lt;span style=&quot;color:#808000;&quot;&gt;void&lt;/span&gt;&lt;span style=&quot;font-weight:600; color:#00677c;&quot;&gt;loadTileGridToGeoTiff&lt;/span&gt;(&lt;span style=&quot;color:#808000;&quot;&gt;const&lt;/span&gt;&lt;span style=&quot;color:#808000;&quot;&gt;char&lt;/span&gt;*&lt;span style=&quot;color:#092e64;&quot;&gt;layerName&lt;/span&gt;,&lt;span style=&quot;color:#808000;&quot;&gt;int&lt;/span&gt;&lt;span style=&quot;color:#092e64;&quot;&gt;zoom&lt;/span&gt;,&lt;span style=&quot;color:#808000;&quot;&gt;int&lt;/span&gt;&lt;span style=&quot;color:#092e64;&quot;&gt;centerRow&lt;/span&gt;,&lt;span style=&quot;color:#808000;&quot;&gt;int&lt;/span&gt;&lt;span style=&quot;color:#092e64;&quot;&gt;centerCol&lt;/span&gt;,&lt;span style=&quot;color:#808000;&quot;&gt;int&lt;/span&gt;&lt;span style=&quot;color:#092e64;&quot;&gt;gridSize&lt;/span&gt;,&lt;span style=&quot;color:#808000;&quot;&gt;const&lt;/span&gt;&lt;span style=&quot;color:#808000;&quot;&gt;char&lt;/span&gt;*&lt;span style=&quot;color:#092e64;&quot;&gt;outputPrefix&lt;/span&gt;);&lt;/pre&gt;&lt;pre style=&quot;-qt-paragraph-type:empty; margin-top:0px; margin-bottom:0px; margin-left:0px; margin-right:0px; -qt-block-indent:0; text-indent:0px;&quot;&gt;&lt;br&gt;&lt;br&gt;&lt;/pre&gt;&lt;style type=&quot;text/css&quot;&gt;p, li { white-space: pre-wrap; }&lt;/style&gt;" style="text;strokeColor=none;fillColor=none;align=left;verticalAlign=top;spacingLeft=4;spacingRight=4;overflow=hidden;rotatable=0;points=[[0,0.5],[1,0.5]];portConstraint=eastwest;whiteSpace=wrap;html=1;" vertex="1" parent="iqyvSb_KlL2L7tUEm-mz-8">
          <mxGeometry y="34" width="850" height="76" as="geometry" />
        </mxCell>
        <mxCell id="iqyvSb_KlL2L7tUEm-mz-12" value="API_WMTS" style="swimlane;fontStyle=1;align=center;verticalAlign=top;childLayout=stackLayout;horizontal=1;startSize=26;horizontalStack=0;resizeParent=1;resizeParentMax=0;resizeLast=0;collapsible=1;marginBottom=0;whiteSpace=wrap;html=1;fillColor=#d5e8d4;strokeColor=#82b366;" vertex="1" parent="1">
          <mxGeometry x="20" y="1200" width="860" height="110" as="geometry" />
        </mxCell>
        <mxCell id="iqyvSb_KlL2L7tUEm-mz-13" value="" style="line;strokeWidth=1;fillColor=none;align=left;verticalAlign=middle;spacingTop=-1;spacingLeft=3;spacingRight=3;rotatable=0;labelPosition=right;points=[];portConstraint=eastwest;strokeColor=inherit;" vertex="1" parent="iqyvSb_KlL2L7tUEm-mz-12">
          <mxGeometry y="26" width="860" height="8" as="geometry" />
        </mxCell>
        <mxCell id="iqyvSb_KlL2L7tUEm-mz-14" value="&lt;pre style=&quot;margin-top:0px; margin-bottom:0px; margin-left:0px; margin-right:0px; -qt-block-indent:0; text-indent:0px;&quot;&gt;&lt;span style=&quot;font-weight:600; color:#00677c;&quot;&gt;API_WMTS&lt;/span&gt;(&lt;span style=&quot;color:#808000;&quot;&gt;const&lt;/span&gt;&lt;span style=&quot;color:#c0c0c0;&quot;&gt; &lt;/span&gt;&lt;span style=&quot;color:#808000;&quot;&gt;char&lt;/span&gt;*&lt;span style=&quot;color:#c0c0c0;&quot;&gt; &lt;/span&gt;&lt;span style=&quot;color:#092e64;&quot;&gt;link&lt;/span&gt;);&lt;/pre&gt;&lt;span style=&quot;color:#808000;&quot;&gt;void&lt;/span&gt;&lt;span style=&quot;color:#c0c0c0;&quot;&gt; &lt;/span&gt;&lt;span style=&quot;font-weight:600; color:#00677c;&quot;&gt;loadDataset&lt;/span&gt;();&lt;br&gt;&lt;pre style=&quot;-qt-paragraph-type:empty; margin-top:0px; margin-bottom:0px; margin-left:0px; margin-right:0px; -qt-block-indent:0; text-indent:0px;&quot;&gt;&lt;span style=&quot;color:#800080;&quot;&gt;QImage&lt;/span&gt;&lt;span style=&quot;color:#c0c0c0;&quot;&gt; &lt;/span&gt;&lt;span style=&quot;font-weight:600; color:#00677c;&quot;&gt;getTileAsImage&lt;/span&gt;(&lt;span style=&quot;color:#808000;&quot;&gt;const&lt;/span&gt;&lt;span style=&quot;color:#c0c0c0;&quot;&gt; &lt;/span&gt;&lt;span style=&quot;color:#808000;&quot;&gt;char&lt;/span&gt;*&lt;span style=&quot;color:#c0c0c0;&quot;&gt; &lt;/span&gt;&lt;span style=&quot;color:#092e64;&quot;&gt;layerName&lt;/span&gt;,&lt;span style=&quot;color:#c0c0c0;&quot;&gt; &lt;/span&gt;&lt;span style=&quot;color:#808000;&quot;&gt;int&lt;/span&gt;&lt;span style=&quot;color:#c0c0c0;&quot;&gt; &lt;/span&gt;&lt;span style=&quot;color:#092e64;&quot;&gt;zoom&lt;/span&gt;,&lt;span style=&quot;color:#c0c0c0;&quot;&gt; &lt;/span&gt;&lt;span style=&quot;color:#808000;&quot;&gt;int&lt;/span&gt;&lt;span style=&quot;color:#c0c0c0;&quot;&gt; &lt;/span&gt;&lt;span style=&quot;color:#092e64;&quot;&gt;row&lt;/span&gt;,&lt;span style=&quot;color:#c0c0c0;&quot;&gt; &lt;/span&gt;&lt;span style=&quot;color:#808000;&quot;&gt;int&lt;/span&gt;&lt;span style=&quot;color:#c0c0c0;&quot;&gt; &lt;/span&gt;&lt;span style=&quot;color:#092e64;&quot;&gt;col&lt;/span&gt;);&lt;/pre&gt;&lt;span style=&quot;color:#808000;&quot;&gt;void&lt;/span&gt;&lt;span style=&quot;color:#c0c0c0;&quot;&gt; &lt;/span&gt;displayTiles(&lt;span style=&quot;color:#808000;&quot;&gt;const&lt;/span&gt;&lt;span style=&quot;color:#c0c0c0;&quot;&gt; &lt;/span&gt;&lt;span style=&quot;color:#808000;&quot;&gt;char&lt;/span&gt;*&lt;span style=&quot;color:#c0c0c0;&quot;&gt; &lt;/span&gt;layerName,&lt;span style=&quot;color:#c0c0c0;&quot;&gt; &lt;/span&gt;&lt;span style=&quot;color:#808000;&quot;&gt;int&lt;/span&gt;&lt;span style=&quot;color:#c0c0c0;&quot;&gt; &lt;/span&gt;zoom,&lt;span style=&quot;color:#c0c0c0;&quot;&gt; &lt;/span&gt;&lt;span style=&quot;color:#808000;&quot;&gt;int&lt;/span&gt;&lt;span style=&quot;color:#c0c0c0;&quot;&gt; &lt;/span&gt;centerRow,&lt;span style=&quot;color:#c0c0c0;&quot;&gt; &lt;/span&gt;&lt;span style=&quot;color:#808000;&quot;&gt;int&lt;/span&gt;&lt;span style=&quot;color:#c0c0c0;&quot;&gt; &lt;/span&gt;centerCol,&lt;span style=&quot;color:#c0c0c0;&quot;&gt; &lt;/span&gt;&lt;span style=&quot;color:#808000;&quot;&gt;int&lt;/span&gt;&lt;span style=&quot;color:#c0c0c0;&quot;&gt; &lt;/span&gt;gridSize,&lt;span style=&quot;color:#c0c0c0;&quot;&gt; &lt;/span&gt;QGraphicsScene*&lt;span style=&quot;color:#c0c0c0;&quot;&gt; &lt;/span&gt;scene);&lt;style type=&quot;text/css&quot;&gt;p, li { white-space: pre-wrap; }&lt;/style&gt;" style="text;strokeColor=none;fillColor=none;align=left;verticalAlign=top;spacingLeft=4;spacingRight=4;overflow=hidden;rotatable=0;points=[[0,0.5],[1,0.5]];portConstraint=eastwest;whiteSpace=wrap;html=1;" vertex="1" parent="iqyvSb_KlL2L7tUEm-mz-12">
          <mxGeometry y="34" width="860" height="76" as="geometry" />
        </mxCell>
        <mxCell id="iqyvSb_KlL2L7tUEm-mz-15" value="API_WFS" style="swimlane;fontStyle=1;align=center;verticalAlign=top;childLayout=stackLayout;horizontal=1;startSize=26;horizontalStack=0;resizeParent=1;resizeParentMax=0;resizeLast=0;collapsible=1;marginBottom=0;whiteSpace=wrap;html=1;fillColor=#d5e8d4;strokeColor=#82b366;" vertex="1" parent="1">
          <mxGeometry x="20" y="1070" width="860" height="120" as="geometry" />
        </mxCell>
        <mxCell id="iqyvSb_KlL2L7tUEm-mz-16" value="" style="line;strokeWidth=1;fillColor=none;align=left;verticalAlign=middle;spacingTop=-1;spacingLeft=3;spacingRight=3;rotatable=0;labelPosition=right;points=[];portConstraint=eastwest;strokeColor=inherit;" vertex="1" parent="iqyvSb_KlL2L7tUEm-mz-15">
          <mxGeometry y="26" width="860" height="8" as="geometry" />
        </mxCell>
        <mxCell id="iqyvSb_KlL2L7tUEm-mz-17" value="&lt;pre style=&quot;margin-top:0px; margin-bottom:0px; margin-left:0px; margin-right:0px; -qt-block-indent:0; text-indent:0px;&quot;&gt;API_WFS(&lt;span style=&quot;color:#808000;&quot;&gt;const&lt;/span&gt;&lt;span style=&quot;color:#c0c0c0;&quot;&gt; &lt;/span&gt;&lt;span style=&quot;color:#808000;&quot;&gt;char&lt;/span&gt;*&lt;span style=&quot;color:#c0c0c0;&quot;&gt; &lt;/span&gt;link)&lt;span style=&quot;color:#c0c0c0;&quot;&gt; &lt;/span&gt;;&lt;/pre&gt;&lt;span style=&quot;color:#808000;&quot;&gt;void&lt;/span&gt;&lt;span style=&quot;font-weight:600; color:#00677c;&quot;&gt;loadDataset&lt;/span&gt;();&lt;pre style=&quot;-qt-paragraph-type:empty; margin-top:0px; margin-bottom:0px; margin-left:0px; margin-right:0px; -qt-block-indent:0; text-indent:0px;&quot;&gt;&lt;span style=&quot;color:#808000;&quot;&gt;void&lt;/span&gt;&lt;span style=&quot;font-weight:600; color:#00677c;&quot;&gt;getData&lt;/span&gt;(&lt;span style=&quot;color:#808000;&quot;&gt;const&lt;/span&gt;&lt;span style=&quot;color:#808000;&quot;&gt;char&lt;/span&gt;*&lt;span style=&quot;color:#092e64;&quot;&gt;name&lt;/span&gt;);&lt;/pre&gt;&lt;pre style=&quot;-qt-paragraph-type:empty; margin-top:0px; margin-bottom:0px; margin-left:0px; margin-right:0px; -qt-block-indent:0; text-indent:0px;&quot;&gt;&lt;span style=&quot;color:#800080;&quot;&gt;OGRLayer&lt;/span&gt;*&lt;span style=&quot;font-weight:600; color:#00677c;&quot;&gt;GetLayer&lt;/span&gt;(&lt;span style=&quot;color:#808000;&quot;&gt;const&lt;/span&gt;&lt;span style=&quot;color:#808000;&quot;&gt;char&lt;/span&gt;*&lt;span style=&quot;color:#092e64;&quot;&gt;name&lt;/span&gt;=&lt;span style=&quot;color:#008000;&quot;&gt;&quot;&quot;&lt;/span&gt;);&lt;br&gt;&lt;span style=&quot;color:#800080;&quot;&gt;std&lt;/span&gt;::&lt;span style=&quot;color:#800080;&quot;&gt;string&lt;/span&gt;&lt;span style=&quot;color:#c0c0c0;&quot;&gt; &lt;/span&gt;&lt;span style=&quot;font-weight:600; color:#00677c;&quot;&gt;ExportToGeoJSON&lt;/span&gt;(&lt;span style=&quot;color:#808000;&quot;&gt;int&lt;/span&gt;&lt;span style=&quot;color:#c0c0c0;&quot;&gt; &lt;/span&gt;&lt;span style=&quot;color:#092e64;&quot;&gt;n&lt;/span&gt;,&lt;span style=&quot;color:#c0c0c0;&quot;&gt; &lt;/span&gt;&lt;span style=&quot;color:#808000;&quot;&gt;const&lt;/span&gt;&lt;span style=&quot;color:#c0c0c0;&quot;&gt; &lt;/span&gt;&lt;span style=&quot;color:#800080;&quot;&gt;std&lt;/span&gt;::&lt;span style=&quot;color:#800080;&quot;&gt;string&lt;/span&gt;&amp;amp;&lt;span style=&quot;color:#c0c0c0;&quot;&gt; &lt;/span&gt;&lt;span style=&quot;color:#092e64;&quot;&gt;outputFilePath&lt;/span&gt;);&lt;/pre&gt;&lt;style type=&quot;text/css&quot;&gt;p, li { white-space: pre-wrap; }&lt;/style&gt;" style="text;strokeColor=none;fillColor=none;align=left;verticalAlign=top;spacingLeft=4;spacingRight=4;overflow=hidden;rotatable=0;points=[[0,0.5],[1,0.5]];portConstraint=eastwest;whiteSpace=wrap;html=1;" vertex="1" parent="iqyvSb_KlL2L7tUEm-mz-15">
          <mxGeometry y="34" width="860" height="86" as="geometry" />
        </mxCell>
        <mxCell id="iqyvSb_KlL2L7tUEm-mz-20" style="edgeStyle=orthogonalEdgeStyle;rounded=0;orthogonalLoop=1;jettySize=auto;html=1;" edge="1" parent="1" source="iqyvSb_KlL2L7tUEm-mz-17" target="iqyvSb_KlL2L7tUEm-mz-4">
          <mxGeometry relative="1" as="geometry" />
        </mxCell>
        <mxCell id="iqyvSb_KlL2L7tUEm-mz-21" style="edgeStyle=orthogonalEdgeStyle;rounded=0;orthogonalLoop=1;jettySize=auto;html=1;" edge="1" parent="1" source="iqyvSb_KlL2L7tUEm-mz-14" target="iqyvSb_KlL2L7tUEm-mz-4">
          <mxGeometry relative="1" as="geometry" />
        </mxCell>
        <mxCell id="iqyvSb_KlL2L7tUEm-mz-22" style="edgeStyle=orthogonalEdgeStyle;rounded=0;orthogonalLoop=1;jettySize=auto;html=1;" edge="1" parent="1" source="iqyvSb_KlL2L7tUEm-mz-11" target="iqyvSb_KlL2L7tUEm-mz-4">
          <mxGeometry relative="1" as="geometry">
            <Array as="points">
              <mxPoint x="950" y="1392" />
              <mxPoint x="950" y="1239" />
            </Array>
          </mxGeometry>
        </mxCell>
        <mxCell id="iqyvSb_KlL2L7tUEm-mz-23" value="&lt;div&gt;Create&lt;/div&gt;" style="html=1;verticalAlign=bottom;endArrow=open;dashed=1;endSize=8;curved=0;rounded=0;" edge="1" parent="1" source="iqyvSb_KlL2L7tUEm-mz-4" target="M28GYR8N4w48KDMcxOb5-6">
          <mxGeometry relative="1" as="geometry">
            <mxPoint x="950" y="1470" as="sourcePoint" />
            <mxPoint x="870" y="1470" as="targetPoint" />
          </mxGeometry>
        </mxCell>
        <mxCell id="61fBXbApF1Y0hZVp9F97-3" value="NO USE NOW" style="text;html=1;align=center;verticalAlign=middle;whiteSpace=wrap;rounded=0;" vertex="1" parent="1">
          <mxGeometry x="245" y="2200" width="130" height="30" as="geometry" />
        </mxCell>
        <mxCell id="61fBXbApF1Y0hZVp9F97-4" value="NO USE NOW" style="text;html=1;align=center;verticalAlign=middle;whiteSpace=wrap;rounded=0;" vertex="1" parent="1">
          <mxGeometry x="90" y="1880" width="130" height="30" as="geometry" />
        </mxCell>
        <mxCell id="61fBXbApF1Y0hZVp9F97-7" style="edgeStyle=orthogonalEdgeStyle;rounded=0;orthogonalLoop=1;jettySize=auto;html=1;" edge="1" parent="1" source="61fBXbApF1Y0hZVp9F97-6" target="Mz-Ej8ue9t3ja8AV73kb-6">
          <mxGeometry relative="1" as="geometry" />
        </mxCell>
        <mxCell id="61fBXbApF1Y0hZVp9F97-6" value="&lt;p style=&quot;margin:0px;margin-top:4px;text-align:center;&quot;&gt;&lt;b&gt;RasterData&lt;br&gt;&lt;/b&gt;&lt;/p&gt;&lt;hr size=&quot;1&quot; style=&quot;border-style:solid;&quot;&gt;&amp;nbsp;&lt;br&gt;&lt;hr size=&quot;1&quot; style=&quot;border-style:solid;&quot;&gt;&lt;div&gt;&lt;pre style=&quot;margin-top:0px; margin-bottom:0px; margin-left:0px; margin-right:0px; -qt-block-indent:0; text-indent:0px;&quot;&gt;+ RasterData();&lt;/pre&gt;&lt;span style=&quot;font-weight:600; color:#00677c;&quot;&gt;+ RasterData&lt;/span&gt;(&lt;span style=&quot;color:#808000;&quot;&gt;const&lt;/span&gt;&lt;span style=&quot;color:#c0c0c0;&quot;&gt; &lt;/span&gt;&lt;span style=&quot;color:#808000;&quot;&gt;char&lt;/span&gt;*&lt;span style=&quot;color:#c0c0c0;&quot;&gt; &lt;/span&gt;&lt;span style=&quot;color:#092e64;&quot;&gt;path&lt;/span&gt;);&lt;/div&gt;&lt;div&gt;+ ~&lt;span style=&quot;font-weight:600; color:#00677c;&quot;&gt;RasterData&lt;/span&gt;();&lt;br&gt;&lt;/div&gt;" style="verticalAlign=top;align=left;overflow=fill;html=1;whiteSpace=wrap;fillColor=#ffe6cc;strokeColor=#d79b00;" vertex="1" parent="1">
          <mxGeometry x="940" y="1760" width="180" height="120" as="geometry" />
        </mxCell>
        <mxCell id="T-lWKSoQIw2f4ri57Lx8-3" value="Text" style="text;html=1;align=center;verticalAlign=middle;resizable=0;points=[];autosize=1;strokeColor=none;fillColor=none;" vertex="1" parent="1">
          <mxGeometry x="1255" y="38" width="50" height="30" as="geometry" />
        </mxCell>
        <mxCell id="T-lWKSoQIw2f4ri57Lx8-14" value="Main Window" style="swimlane;fontStyle=1;align=center;verticalAlign=top;childLayout=stackLayout;horizontal=1;startSize=26;horizontalStack=0;resizeParent=1;resizeParentMax=0;resizeLast=0;collapsible=1;marginBottom=0;whiteSpace=wrap;html=1;" vertex="1" parent="1">
          <mxGeometry x="1050" y="-830" width="300" height="290" as="geometry" />
        </mxCell>
        <mxCell id="T-lWKSoQIw2f4ri57Lx8-15" value="- Ui::MainWindow *ui;&lt;br&gt;- Renderer* renderer;&lt;br&gt;- QTimer* refreshTimer;&lt;br&gt;- ObjectLoader *objectLoader = nullptr;&lt;br&gt;- std::vector&amp;lt;std::string&amp;gt; name_layers;&lt;br&gt;- int nb_layers = 0;" style="text;strokeColor=none;fillColor=none;align=left;verticalAlign=top;spacingLeft=4;spacingRight=4;overflow=hidden;rotatable=0;points=[[0,0.5],[1,0.5]];portConstraint=eastwest;whiteSpace=wrap;html=1;" vertex="1" parent="T-lWKSoQIw2f4ri57Lx8-14">
          <mxGeometry y="26" width="300" height="114" as="geometry" />
        </mxCell>
        <mxCell id="T-lWKSoQIw2f4ri57Lx8-16" value="" style="line;strokeWidth=1;fillColor=none;align=left;verticalAlign=middle;spacingTop=-4;spacingLeft=0;spacingRight=0;rotatable=0;labelPosition=right;points=[];portConstraint=eastwest;strokeColor=inherit;" vertex="1" parent="T-lWKSoQIw2f4ri57Lx8-14">
          <mxGeometry y="140" width="300" height="10" as="geometry" />
        </mxCell>
        <mxCell id="T-lWKSoQIw2f4ri57Lx8-17" value="&lt;pre style=&quot;margin-top:0px; margin-bottom:0px; margin-left:0px; margin-right:0px; -qt-block-indent:0; text-indent:0px;&quot;&gt;&lt;span style=&quot;font-weight:600; color:#00677c;&quot;&gt;+ MainWindow&lt;/span&gt;(&lt;span style=&quot;color:#800080;&quot;&gt;QWidget&lt;/span&gt;&lt;span style=&quot;color:#c0c0c0;&quot;&gt; &lt;/span&gt;*&lt;span style=&quot;color:#092e64;&quot;&gt;parent&lt;/span&gt;&lt;span style=&quot;color:#c0c0c0;&quot;&gt; &lt;/span&gt;=&lt;span style=&quot;color:#c0c0c0;&quot;&gt; &lt;/span&gt;&lt;span style=&quot;color:#808000;&quot;&gt;nullptr&lt;/span&gt;);&lt;/pre&gt;&lt;div&gt;+ ~&lt;span style=&quot;font-weight:600; font-style:italic; color:#00677c;&quot;&gt;MainWindow&lt;/span&gt;();&lt;/div&gt;&lt;div&gt;&lt;span style=&quot;color:#808000;&quot;&gt;+&amp;nbsp; void&lt;/span&gt;&lt;span style=&quot;color:#c0c0c0;&quot;&gt; &lt;/span&gt;&lt;span style=&quot;font-weight:600; color:#00677c;&quot;&gt;clearLayout&lt;/span&gt;(&lt;span style=&quot;color:#800080;&quot;&gt;QLayout&lt;/span&gt;&lt;span style=&quot;color:#c0c0c0;&quot;&gt; &lt;/span&gt;*&lt;span style=&quot;color:#092e64;&quot;&gt;layout&lt;/span&gt;);&lt;/div&gt;&lt;div&gt;&lt;br/&gt;&lt;br/&gt;&lt;pre style=&quot;margin-top:0px; margin-bottom:0px; margin-left:0px; margin-right:0px; -qt-block-indent:0; text-indent:0px;&quot;&gt;&lt;span style=&quot;color:#808000;&quot;&gt;- void&lt;/span&gt;&lt;span style=&quot;color:#c0c0c0;&quot;&gt; &lt;/span&gt;onOpenFile();&lt;br/&gt;&lt;span style=&quot;color:#808000;&quot;&gt;- void&lt;/span&gt;&lt;span style=&quot;color:#c0c0c0;&quot;&gt; &lt;/span&gt;&lt;span style=&quot;font-weight:600; color:#00677c;&quot;&gt;setupCheckboxes&lt;/span&gt;();&lt;style type=&quot;text/css&quot;&gt;p, li { white-space: pre-wrap; }&lt;/style&gt;&lt;pre style=&quot;margin-top:0px; margin-bottom:0px; margin-left:0px; margin-right:0px; -qt-block-indent:0; text-indent:0px;&quot;&gt;&lt;/pre&gt;&lt;/pre&gt;&lt;style type=&quot;text/css&quot;&gt;p, li { white-space: pre-wrap; }&lt;/style&gt;&lt;/div&gt;" style="text;strokeColor=none;fillColor=none;align=left;verticalAlign=top;spacingLeft=4;spacingRight=4;overflow=hidden;rotatable=0;points=[[0,0.5],[1,0.5]];portConstraint=eastwest;whiteSpace=wrap;html=1;" vertex="1" parent="T-lWKSoQIw2f4ri57Lx8-14">
          <mxGeometry y="150" width="300" height="140" as="geometry" />
        </mxCell>
        <mxCell id="T-lWKSoQIw2f4ri57Lx8-21" value="&lt;div&gt;Renderer&lt;/div&gt;&lt;div&gt;&lt;br&gt;&lt;/div&gt;" style="swimlane;fontStyle=1;align=center;verticalAlign=top;childLayout=stackLayout;horizontal=1;startSize=26;horizontalStack=0;resizeParent=1;resizeParentMax=0;resizeLast=0;collapsible=1;marginBottom=0;whiteSpace=wrap;html=1;" vertex="1" parent="1">
          <mxGeometry x="1760" y="-630" width="540" height="650" as="geometry" />
        </mxCell>
        <mxCell id="T-lWKSoQIw2f4ri57Lx8-22" value="&lt;div&gt;&amp;nbsp;+ BoundingBox boundingBox;&lt;/div&gt;&lt;div&gt;&amp;nbsp;+ Controller* controller;&lt;/div&gt;&lt;div&gt;&amp;nbsp;+ std::vector&amp;lt;Layer2d&amp;gt; lst_layers2d;&lt;/div&gt;&lt;div&gt;&lt;br&gt;&lt;/div&gt;&lt;div&gt;&lt;div&gt;&amp;nbsp;- ObjectLoader* objectLoader;&lt;/div&gt;&lt;div&gt;&amp;nbsp;- bool is3D;&lt;/div&gt;&lt;/div&gt;" style="text;strokeColor=none;fillColor=none;align=left;verticalAlign=top;spacingLeft=4;spacingRight=4;overflow=hidden;rotatable=0;points=[[0,0.5],[1,0.5]];portConstraint=eastwest;whiteSpace=wrap;html=1;" vertex="1" parent="T-lWKSoQIw2f4ri57Lx8-21">
          <mxGeometry y="26" width="540" height="184" as="geometry" />
        </mxCell>
        <mxCell id="T-lWKSoQIw2f4ri57Lx8-23" value="" style="line;strokeWidth=1;fillColor=none;align=left;verticalAlign=middle;spacingTop=-1;spacingLeft=3;spacingRight=3;rotatable=0;labelPosition=right;points=[];portConstraint=eastwest;strokeColor=inherit;" vertex="1" parent="T-lWKSoQIw2f4ri57Lx8-21">
          <mxGeometry y="210" width="540" height="8" as="geometry" />
        </mxCell>
        <mxCell id="T-lWKSoQIw2f4ri57Lx8-24" value="&lt;div&gt;+ explicit Renderer(QWidget* parent = nullptr);&lt;/div&gt;&lt;div&gt;+&amp;nbsp; virtual ~Renderer();&lt;/div&gt;&lt;div&gt;+&amp;nbsp; void setIs3D(bool enabled);&lt;/div&gt;&lt;div&gt;+&amp;nbsp; void setObjectLoader(ObjectLoader* loader);&lt;/div&gt;&lt;div&gt;+ void reset2D();&lt;/div&gt;&lt;div&gt;+ void reset3D();&lt;/div&gt;&lt;div&gt;&lt;span style=&quot;background-color: initial;&quot;&gt;+ void calculateBoundingBox();&lt;/span&gt;&lt;/div&gt;&lt;div&gt;&lt;span style=&quot;background-color: initial;&quot;&gt;&lt;br&gt;&lt;/span&gt;&lt;/div&gt;&lt;div&gt;&lt;span style=&quot;background-color: initial;&quot;&gt;&lt;div&gt;p&amp;nbsp; void initializeGL() override;&lt;/div&gt;&lt;div&gt;p&amp;nbsp; void resizeGL(int w, int h) override;&lt;/div&gt;&lt;div&gt;p&amp;nbsp; void paintGL() override;&lt;/div&gt;&lt;div&gt;&lt;br&gt;&lt;/div&gt;&lt;div&gt;p&amp;nbsp; void keyPressEvent(QKeyEvent* event) override;&lt;/div&gt;&lt;div&gt;p&amp;nbsp; void wheelEvent(QWheelEvent* event) override;&lt;/div&gt;&lt;div&gt;&lt;br&gt;&lt;/div&gt;&lt;div&gt;&lt;div&gt;-&amp;nbsp; void renderLayers2d();&lt;/div&gt;&lt;div&gt;-&amp;nbsp; void paintGl3D();&lt;/div&gt;&lt;div&gt;-&amp;nbsp; void paintGl2D();&lt;/div&gt;&lt;/div&gt;&lt;div&gt;&lt;div&gt;-&amp;nbsp; void mousePressEvent(QMouseEvent* event) override;&lt;/div&gt;&lt;div&gt;-&amp;nbsp; void mouseReleaseEvent(QMouseEvent* event) override;&lt;/div&gt;&lt;div&gt;&lt;span style=&quot;background-color: initial;&quot;&gt;-&amp;nbsp; void mouseMoveEvent(QMouseEvent* event) override;&lt;/span&gt;&lt;/div&gt;&lt;/div&gt;&lt;/span&gt;&lt;/div&gt;&lt;div&gt;&lt;span style=&quot;background-color: initial;&quot;&gt;&lt;br&gt;&lt;/span&gt;&lt;/div&gt;&lt;div&gt;&lt;span style=&quot;background-color: initial;&quot;&gt;&lt;br&gt;&lt;/span&gt;&lt;/div&gt;" style="text;strokeColor=none;fillColor=none;align=left;verticalAlign=top;spacingLeft=4;spacingRight=4;overflow=hidden;rotatable=0;points=[[0,0.5],[1,0.5]];portConstraint=eastwest;whiteSpace=wrap;html=1;" vertex="1" parent="T-lWKSoQIw2f4ri57Lx8-21">
          <mxGeometry y="218" width="540" height="432" as="geometry" />
        </mxCell>
        <mxCell id="T-lWKSoQIw2f4ri57Lx8-25" value="Renderer 3D" style="swimlane;fontStyle=1;align=center;verticalAlign=top;childLayout=stackLayout;horizontal=1;startSize=26;horizontalStack=0;resizeParent=1;resizeParentMax=0;resizeLast=0;collapsible=1;marginBottom=0;whiteSpace=wrap;html=1;" vertex="1" parent="1">
          <mxGeometry x="1780" y="120" width="160" height="86" as="geometry" />
        </mxCell>
        <mxCell id="T-lWKSoQIw2f4ri57Lx8-26" value="+ field: type" style="text;strokeColor=none;fillColor=none;align=left;verticalAlign=top;spacingLeft=4;spacingRight=4;overflow=hidden;rotatable=0;points=[[0,0.5],[1,0.5]];portConstraint=eastwest;whiteSpace=wrap;html=1;" vertex="1" parent="T-lWKSoQIw2f4ri57Lx8-25">
          <mxGeometry y="26" width="160" height="26" as="geometry" />
        </mxCell>
        <mxCell id="T-lWKSoQIw2f4ri57Lx8-27" value="" style="line;strokeWidth=1;fillColor=none;align=left;verticalAlign=middle;spacingTop=-1;spacingLeft=3;spacingRight=3;rotatable=0;labelPosition=right;points=[];portConstraint=eastwest;strokeColor=inherit;" vertex="1" parent="T-lWKSoQIw2f4ri57Lx8-25">
          <mxGeometry y="52" width="160" height="8" as="geometry" />
        </mxCell>
        <mxCell id="T-lWKSoQIw2f4ri57Lx8-28" value="+ method(type): type" style="text;strokeColor=none;fillColor=none;align=left;verticalAlign=top;spacingLeft=4;spacingRight=4;overflow=hidden;rotatable=0;points=[[0,0.5],[1,0.5]];portConstraint=eastwest;whiteSpace=wrap;html=1;" vertex="1" parent="T-lWKSoQIw2f4ri57Lx8-25">
          <mxGeometry y="60" width="160" height="26" as="geometry" />
        </mxCell>
        <mxCell id="T-lWKSoQIw2f4ri57Lx8-30" value="Renderer 2D" style="swimlane;fontStyle=1;align=center;verticalAlign=top;childLayout=stackLayout;horizontal=1;startSize=26;horizontalStack=0;resizeParent=1;resizeParentMax=0;resizeLast=0;collapsible=1;marginBottom=0;whiteSpace=wrap;html=1;" vertex="1" parent="1">
          <mxGeometry x="2100" y="120" width="160" height="86" as="geometry" />
        </mxCell>
        <mxCell id="T-lWKSoQIw2f4ri57Lx8-31" value="+ field: type" style="text;strokeColor=none;fillColor=none;align=left;verticalAlign=top;spacingLeft=4;spacingRight=4;overflow=hidden;rotatable=0;points=[[0,0.5],[1,0.5]];portConstraint=eastwest;whiteSpace=wrap;html=1;" vertex="1" parent="T-lWKSoQIw2f4ri57Lx8-30">
          <mxGeometry y="26" width="160" height="26" as="geometry" />
        </mxCell>
        <mxCell id="T-lWKSoQIw2f4ri57Lx8-32" value="" style="line;strokeWidth=1;fillColor=none;align=left;verticalAlign=middle;spacingTop=-1;spacingLeft=3;spacingRight=3;rotatable=0;labelPosition=right;points=[];portConstraint=eastwest;strokeColor=inherit;" vertex="1" parent="T-lWKSoQIw2f4ri57Lx8-30">
          <mxGeometry y="52" width="160" height="8" as="geometry" />
        </mxCell>
        <mxCell id="T-lWKSoQIw2f4ri57Lx8-33" value="+ method(type): type" style="text;strokeColor=none;fillColor=none;align=left;verticalAlign=top;spacingLeft=4;spacingRight=4;overflow=hidden;rotatable=0;points=[[0,0.5],[1,0.5]];portConstraint=eastwest;whiteSpace=wrap;html=1;" vertex="1" parent="T-lWKSoQIw2f4ri57Lx8-30">
          <mxGeometry y="60" width="160" height="26" as="geometry" />
        </mxCell>
        <mxCell id="T-lWKSoQIw2f4ri57Lx8-40" value="" style="endArrow=classic;html=1;rounded=0;entryX=0;entryY=0.25;entryDx=0;entryDy=0;exitX=1;exitY=0.5;exitDx=0;exitDy=0;" edge="1" parent="1" source="T-lWKSoQIw2f4ri57Lx8-22">
          <mxGeometry width="50" height="50" relative="1" as="geometry">
            <mxPoint x="2140" y="-550" as="sourcePoint" />
            <mxPoint x="2480.000000000001" y="-549" as="targetPoint" />
          </mxGeometry>
        </mxCell>
        <mxCell id="T-lWKSoQIw2f4ri57Lx8-41" value="Controller" style="swimlane;fontStyle=1;align=center;verticalAlign=top;childLayout=stackLayout;horizontal=1;startSize=26;horizontalStack=0;resizeParent=1;resizeParentMax=0;resizeLast=0;collapsible=1;marginBottom=0;whiteSpace=wrap;html=1;" vertex="1" parent="1">
          <mxGeometry x="2480" y="-590" width="520" height="438" as="geometry" />
        </mxCell>
        <mxCell id="T-lWKSoQIw2f4ri57Lx8-42" value="+&amp;nbsp; &amp;nbsp; explicit Controller(QWidget* parent = nullptr);&lt;div&gt;&lt;div&gt;&amp;nbsp; -&amp;nbsp; &amp;nbsp;Camera camera; // Caméra contrôlée par Controller&lt;/div&gt;&lt;div&gt;&amp;nbsp; -&amp;nbsp; bool isDragging;&lt;/div&gt;&lt;div&gt;&amp;nbsp; -&amp;nbsp; QPoint lastMousePosition;&lt;/div&gt;&lt;div&gt;&amp;nbsp; -&amp;nbsp; bool is3DMode;&lt;/div&gt;&lt;div&gt;&lt;br&gt;&lt;/div&gt;&lt;div&gt;&lt;br&gt;&lt;/div&gt;&lt;/div&gt;" style="text;strokeColor=none;fillColor=none;align=left;verticalAlign=top;spacingLeft=4;spacingRight=4;overflow=hidden;rotatable=0;points=[[0,0.5],[1,0.5]];portConstraint=eastwest;whiteSpace=wrap;html=1;" vertex="1" parent="T-lWKSoQIw2f4ri57Lx8-41">
          <mxGeometry y="26" width="520" height="194" as="geometry" />
        </mxCell>
        <mxCell id="T-lWKSoQIw2f4ri57Lx8-43" value="" style="line;strokeWidth=1;fillColor=none;align=left;verticalAlign=middle;spacingTop=-1;spacingLeft=3;spacingRight=3;rotatable=0;labelPosition=right;points=[];portConstraint=eastwest;strokeColor=inherit;" vertex="1" parent="T-lWKSoQIw2f4ri57Lx8-41">
          <mxGeometry y="220" width="520" height="8" as="geometry" />
        </mxCell>
        <mxCell id="T-lWKSoQIw2f4ri57Lx8-44" value="&lt;div&gt;Camera&amp;amp; getCamera();&amp;nbsp;&lt;/div&gt;&lt;div&gt;&amp;nbsp; &amp;nbsp; void set3DMode(bool is3D);&lt;/div&gt;&lt;div&gt;&amp;nbsp; &amp;nbsp; void ControllerwheelEvent(QWheelEvent* event) ;&amp;nbsp;&lt;/div&gt;&lt;div&gt;&amp;nbsp; &amp;nbsp; void ControllerkeyPressEvent(QKeyEvent* event) ;&amp;nbsp;&lt;/div&gt;&lt;div&gt;&amp;nbsp; &amp;nbsp; void ControllerQMouseEvent(QMouseEvent *event);&lt;/div&gt;&lt;div&gt;&lt;br&gt;&lt;/div&gt;&lt;div&gt;&lt;br&gt;&lt;/div&gt;&lt;div&gt;&lt;br&gt;&lt;/div&gt;&lt;div&gt;&amp;nbsp; &amp;nbsp; void ControllerMousePressEvent(QMouseEvent* event);&amp;nbsp;&lt;/div&gt;&lt;div&gt;&amp;nbsp; &amp;nbsp; void ControllerMouseReleaseEvent(QMouseEvent* event);&amp;nbsp;&lt;/div&gt;&lt;div&gt;&amp;nbsp; &amp;nbsp; void ControllerMouseMoveEvent(QMouseEvent* event);&amp;nbsp;&lt;/div&gt;&lt;div&gt;&lt;br&gt;&lt;/div&gt;" style="text;strokeColor=none;fillColor=none;align=left;verticalAlign=top;spacingLeft=4;spacingRight=4;overflow=hidden;rotatable=0;points=[[0,0.5],[1,0.5]];portConstraint=eastwest;whiteSpace=wrap;html=1;" vertex="1" parent="T-lWKSoQIw2f4ri57Lx8-41">
          <mxGeometry y="228" width="520" height="210" as="geometry" />
        </mxCell>
        <mxCell id="T-lWKSoQIw2f4ri57Lx8-45" value="Camera" style="swimlane;fontStyle=1;align=center;verticalAlign=top;childLayout=stackLayout;horizontal=1;startSize=26;horizontalStack=0;resizeParent=1;resizeParentMax=0;resizeLast=0;collapsible=1;marginBottom=0;whiteSpace=wrap;html=1;" vertex="1" parent="1">
          <mxGeometry x="2540" y="-20" width="360" height="320" as="geometry" />
        </mxCell>
        <mxCell id="T-lWKSoQIw2f4ri57Lx8-46" value="&lt;pre style=&quot;margin-top:0px; margin-bottom:0px; margin-left:0px; margin-right:0px; -qt-block-indent:0; text-indent:0px;&quot;&gt;&lt;span style=&quot;color:#808000;&quot;&gt;-float&lt;/span&gt;&lt;span style=&quot;color:#c0c0c0;&quot;&gt; &lt;/span&gt;&lt;span style=&quot;color:#800000;&quot;&gt;x&lt;/span&gt;;&lt;/pre&gt;&lt;pre style=&quot;margin-top:0px; margin-bottom:0px; margin-left:0px; margin-right:0px; -qt-block-indent:0; text-indent:0px;&quot;&gt;&lt;span style=&quot;color:#808000;&quot;&gt;-float&lt;/span&gt;&lt;span style=&quot;color:#c0c0c0;&quot;&gt; &lt;/span&gt;&lt;span style=&quot;color:#800000;&quot;&gt;y&lt;/span&gt;;&lt;/pre&gt;&lt;pre style=&quot;margin-top:0px; margin-bottom:0px; margin-left:0px; margin-right:0px; -qt-block-indent:0; text-indent:0px;&quot;&gt;-&lt;span style=&quot;color:#808000;&quot;&gt;float&lt;/span&gt;&lt;span style=&quot;color:#c0c0c0;&quot;&gt; &lt;/span&gt;&lt;span style=&quot;color:#800000;&quot;&gt;zoom&lt;/span&gt;;&lt;/pre&gt;&lt;style type=&quot;text/css&quot;&gt;p, li { white-space: pre-wrap; }&lt;/style&gt;" style="text;strokeColor=none;fillColor=none;align=left;verticalAlign=top;spacingLeft=4;spacingRight=4;overflow=hidden;rotatable=0;points=[[0,0.5],[1,0.5]];portConstraint=eastwest;whiteSpace=wrap;html=1;" vertex="1" parent="T-lWKSoQIw2f4ri57Lx8-45">
          <mxGeometry y="26" width="360" height="64" as="geometry" />
        </mxCell>
        <mxCell id="T-lWKSoQIw2f4ri57Lx8-47" value="" style="line;strokeWidth=1;fillColor=none;align=left;verticalAlign=middle;spacingTop=-1;spacingLeft=3;spacingRight=3;rotatable=0;labelPosition=right;points=[];portConstraint=eastwest;strokeColor=inherit;" vertex="1" parent="T-lWKSoQIw2f4ri57Lx8-45">
          <mxGeometry y="90" width="360" height="10" as="geometry" />
        </mxCell>
        <mxCell id="T-lWKSoQIw2f4ri57Lx8-48" value="&lt;pre style=&quot;margin-top:0px; margin-bottom:0px; margin-left:0px; margin-right:0px; -qt-block-indent:0; text-indent:0px;&quot;&gt;&lt;style type=&quot;text/css&quot;&gt;p, li { white-space: pre-wrap; }&lt;/style&gt;&lt;pre style=&quot;margin-top:0px; margin-bottom:0px; margin-left:0px; margin-right:0px; -qt-block-indent:0; text-indent:0px;&quot;&gt;&lt;/pre&gt;&lt;span style=&quot;font-weight:600; color:#00677c;&quot;&gt;+Camera&lt;/span&gt;();&lt;br&gt;&lt;span style=&quot;color:#808000;&quot;&gt;+float&lt;/span&gt;&lt;span style=&quot;color:#c0c0c0;&quot;&gt; &lt;/span&gt;&lt;span style=&quot;font-weight:600; color:#00677c;&quot;&gt;getX&lt;/span&gt;();&lt;br&gt;&lt;span style=&quot;color:#808000;&quot;&gt;+float&lt;/span&gt;&lt;span style=&quot;color:#c0c0c0;&quot;&gt; &lt;/span&gt;&lt;span style=&quot;font-weight:600; color:#00677c;&quot;&gt;getY&lt;/span&gt;();&lt;br&gt;&lt;span style=&quot;color:#808000;&quot;&gt;+void&lt;/span&gt;&lt;span style=&quot;color:#c0c0c0;&quot;&gt; &lt;/span&gt;&lt;span style=&quot;font-weight:600; color:#00677c;&quot;&gt;setX&lt;/span&gt;(&lt;span style=&quot;color:#808000;&quot;&gt;float&lt;/span&gt;&lt;span style=&quot;color:#c0c0c0;&quot;&gt; &lt;/span&gt;&lt;span style=&quot;color:#092e64;&quot;&gt;x&lt;/span&gt;);&lt;br&gt;&lt;span style=&quot;color:#808000;&quot;&gt;+void&lt;/span&gt;&lt;span style=&quot;color:#c0c0c0;&quot;&gt; &lt;/span&gt;&lt;span style=&quot;font-weight:600; color:#00677c;&quot;&gt;moveUp&lt;/span&gt;(&lt;span style=&quot;color:#808000;&quot;&gt;float&lt;/span&gt;&lt;span style=&quot;color:#c0c0c0;&quot;&gt; &lt;/span&gt;&lt;span style=&quot;color:#092e64;&quot;&gt;step&lt;/span&gt;);&lt;br&gt;&lt;span style=&quot;color:#808000;&quot;&gt;+void&lt;/span&gt;&lt;span style=&quot;color:#c0c0c0;&quot;&gt; &lt;/span&gt;&lt;span style=&quot;font-weight:600; color:#00677c;&quot;&gt;moveDown&lt;/span&gt;(&lt;span style=&quot;color:#808000;&quot;&gt;float&lt;/span&gt;&lt;span style=&quot;color:#c0c0c0;&quot;&gt; &lt;/span&gt;&lt;span style=&quot;color:#092e64;&quot;&gt;step&lt;/span&gt;);&lt;br&gt;&lt;span style=&quot;color:#808000;&quot;&gt;+void&lt;/span&gt;&lt;span style=&quot;color:#c0c0c0;&quot;&gt; &lt;/span&gt;&lt;span style=&quot;font-weight:600; color:#00677c;&quot;&gt;moveLeft&lt;/span&gt;(&lt;span style=&quot;color:#808000;&quot;&gt;float&lt;/span&gt;&lt;span style=&quot;color:#c0c0c0;&quot;&gt; &lt;/span&gt;&lt;span style=&quot;color:#092e64;&quot;&gt;step&lt;/span&gt;);&lt;br&gt;&lt;span style=&quot;color:#808000;&quot;&gt;+void&lt;/span&gt;&lt;span style=&quot;color:#c0c0c0;&quot;&gt; &lt;/span&gt;&lt;span style=&quot;font-weight:600; color:#00677c;&quot;&gt;moveRight&lt;/span&gt;(&lt;span style=&quot;color:#808000;&quot;&gt;float&lt;/span&gt;&lt;span style=&quot;color:#c0c0c0;&quot;&gt; &lt;/span&gt;&lt;span style=&quot;color:#092e64;&quot;&gt;step&lt;/span&gt;);&lt;br&gt;&lt;span style=&quot;color:#808000;&quot;&gt;+void&lt;/span&gt;&lt;span style=&quot;color:#c0c0c0;&quot;&gt; &lt;/span&gt;&lt;span style=&quot;font-weight:600; color:#00677c;&quot;&gt;centerOnBoundingBox&lt;/span&gt;(&lt;span style=&quot;color:#808000;&quot;&gt;const&lt;/span&gt;&lt;span style=&quot;color:#c0c0c0;&quot;&gt; &lt;/span&gt;&lt;span style=&quot;color:#800080;&quot;&gt;BoundingBox&lt;/span&gt;&amp;amp;&lt;span style=&quot;color:#c0c0c0;&quot;&gt; &lt;/span&gt;&lt;span style=&quot;color:#092e64;&quot;&gt;bbox&lt;/span&gt;);&lt;br&gt;&lt;span style=&quot;color:#800080;&quot;&gt;+glm&lt;/span&gt;::&lt;span style=&quot;color:#800080;&quot;&gt;vec3&lt;/span&gt;&lt;span style=&quot;color:#c0c0c0;&quot;&gt; &lt;/span&gt;&lt;span style=&quot;font-weight:600; color:#00677c;&quot;&gt;getPosition&lt;/span&gt;();&lt;br&gt;&lt;span style=&quot;color:#800080;&quot;&gt;+QMatrix4x4&lt;/span&gt;&lt;span style=&quot;color:#c0c0c0;&quot;&gt; &lt;/span&gt;&lt;span style=&quot;font-weight:600; color:#00677c;&quot;&gt;getViewMatrix&lt;/span&gt;();&lt;br&gt;&lt;span style=&quot;color:#800080;&quot;&gt;+QMatrix4x4&lt;/span&gt;&lt;span style=&quot;color:#c0c0c0;&quot;&gt; &lt;/span&gt;&lt;span style=&quot;font-weight:600; color:#00677c;&quot;&gt;getModelViewMatrix&lt;/span&gt;(&lt;span style=&quot;color:#808000;&quot;&gt;const&lt;/span&gt;&lt;span style=&quot;color:#c0c0c0;&quot;&gt; &lt;/span&gt;&lt;span style=&quot;color:#800080;&quot;&gt;QMatrix4x4&lt;/span&gt;&amp;amp;&lt;span style=&quot;color:#c0c0c0;&quot;&gt; &lt;/span&gt;&lt;span style=&quot;color:#092e64;&quot;&gt;modelMatrix&lt;/span&gt;);&lt;style type=&quot;text/css&quot;&gt;p, li { white-space: pre-wrap; }&lt;/style&gt;&lt;pre style=&quot;margin-top:0px; margin-bottom:0px; margin-left:0px; margin-right:0px; -qt-block-indent:0; text-indent:0px;&quot;&gt;&lt;/pre&gt;&lt;br&gt;&lt;br&gt;&lt;br&gt;&lt;style type=&quot;text/css&quot;&gt;p, li { white-space: pre-wrap; }&lt;/style&gt;&lt;pre style=&quot;margin-top:0px; margin-bottom:0px; margin-left:0px; margin-right:0px; -qt-block-indent:0; text-indent:0px;&quot;&gt;&lt;/pre&gt;&lt;style type=&quot;text/css&quot;&gt;p, li { white-space: pre-wrap; }&lt;/style&gt;&lt;pre style=&quot;margin-top:0px; margin-bottom:0px; margin-left:0px; margin-right:0px; -qt-block-indent:0; text-indent:0px;&quot;&gt;&lt;/pre&gt;&lt;style type=&quot;text/css&quot;&gt;p, li { white-space: pre-wrap; }&lt;/style&gt;&lt;pre style=&quot;margin-top:0px; margin-bottom:0px; margin-left:0px; margin-right:0px; -qt-block-indent:0; text-indent:0px;&quot;&gt;&lt;/pre&gt;&lt;style type=&quot;text/css&quot;&gt;p, li { white-space: pre-wrap; }&lt;/style&gt;&lt;pre style=&quot;margin-top:0px; margin-bottom:0px; margin-left:0px; margin-right:0px; -qt-block-indent:0; text-indent:0px;&quot;&gt;&lt;/pre&gt;&lt;style type=&quot;text/css&quot;&gt;p, li { white-space: pre-wrap; }&lt;/style&gt;&lt;pre style=&quot;margin-top:0px; margin-bottom:0px; margin-left:0px; margin-right:0px; -qt-block-indent:0; text-indent:0px;&quot;&gt;&lt;/pre&gt;&lt;style type=&quot;text/css&quot;&gt;p, li { white-space: pre-wrap; }&lt;/style&gt;&lt;pre style=&quot;margin-top:0px; margin-bottom:0px; margin-left:0px; margin-right:0px; -qt-block-indent:0; text-indent:0px;&quot;&gt;&lt;/pre&gt;&lt;style type=&quot;text/css&quot;&gt;p, li { white-space: pre-wrap; }&lt;/style&gt;&lt;pre style=&quot;margin-top:0px; margin-bottom:0px; margin-left:0px; margin-right:0px; -qt-block-indent:0; text-indent:0px;&quot;&gt;&lt;/pre&gt;&lt;style type=&quot;text/css&quot;&gt;p, li { white-space: pre-wrap; }&lt;/style&gt;&lt;pre style=&quot;margin-top:0px; margin-bottom:0px; margin-left:0px; margin-right:0px; -qt-block-indent:0; text-indent:0px;&quot;&gt;&lt;/pre&gt;&lt;style type=&quot;text/css&quot;&gt;p, li { white-space: pre-wrap; }&lt;/style&gt;&lt;pre style=&quot;margin-top:0px; margin-bottom:0px; margin-left:0px; margin-right:0px; -qt-block-indent:0; text-indent:0px;&quot;&gt;&lt;/pre&gt;&lt;br&gt;&lt;br&gt;&lt;style type=&quot;text/css&quot;&gt;p, li { white-space: pre-wrap; }&lt;/style&gt;&lt;pre style=&quot;margin-top:0px; margin-bottom:0px; margin-left:0px; margin-right:0px; -qt-block-indent:0; text-indent:0px;&quot;&gt;&lt;/pre&gt;&lt;style type=&quot;text/css&quot;&gt;p, li { white-space: pre-wrap; }&lt;/style&gt;&lt;pre style=&quot;margin-top:0px; margin-bottom:0px; margin-left:0px; margin-right:0px; -qt-block-indent:0; text-indent:0px;&quot;&gt;&lt;/pre&gt;&lt;/pre&gt;&lt;div&gt;&lt;style type=&quot;text/css&quot;&gt;p, li { white-space: pre-wrap; }a&lt;/style&gt;&lt;/div&gt;" style="text;strokeColor=none;fillColor=none;align=left;verticalAlign=top;spacingLeft=4;spacingRight=4;overflow=hidden;rotatable=0;points=[[0,0.5],[1,0.5]];portConstraint=eastwest;whiteSpace=wrap;html=1;" vertex="1" parent="T-lWKSoQIw2f4ri57Lx8-45">
          <mxGeometry y="100" width="360" height="220" as="geometry" />
        </mxCell>
        <mxCell id="j41M9WMoLJHoZTW-6EMn-4" value="" style="endArrow=classic;html=1;rounded=0;" edge="1" parent="1">
          <mxGeometry width="50" height="50" relative="1" as="geometry">
            <mxPoint x="2520" y="40" as="sourcePoint" />
            <mxPoint x="2570" y="-10" as="targetPoint" />
          </mxGeometry>
        </mxCell>
        <mxCell id="j41M9WMoLJHoZTW-6EMn-5" value="" style="endArrow=classic;html=1;rounded=0;exitX=0.44;exitY=0.99;exitDx=0;exitDy=0;exitPerimeter=0;entryX=0.5;entryY=0;entryDx=0;entryDy=0;" edge="1" parent="1" source="T-lWKSoQIw2f4ri57Lx8-44" target="T-lWKSoQIw2f4ri57Lx8-45">
          <mxGeometry width="50" height="50" relative="1" as="geometry">
            <mxPoint x="2660" y="-70" as="sourcePoint" />
            <mxPoint x="2710" y="-120" as="targetPoint" />
          </mxGeometry>
        </mxCell>
        <mxCell id="j41M9WMoLJHoZTW-6EMn-6" value="layer 2D" style="swimlane;fontStyle=1;align=center;verticalAlign=top;childLayout=stackLayout;horizontal=1;startSize=26;horizontalStack=0;resizeParent=1;resizeParentMax=0;resizeLast=0;collapsible=1;marginBottom=0;whiteSpace=wrap;html=1;" vertex="1" parent="1">
          <mxGeometry x="1500" y="360" width="450" height="320" as="geometry" />
        </mxCell>
        <mxCell id="j41M9WMoLJHoZTW-6EMn-7" value="&lt;div&gt;-&amp;nbsp; std::vector&amp;lt;std::pair&amp;lt;float, float&amp;gt;&amp;gt; points;&lt;/div&gt;&lt;div&gt;-&amp;nbsp; std::vector&amp;lt;std::vector&amp;lt;std::pair&amp;lt;float, float&amp;gt;&amp;gt;&amp;gt; linestrings;&lt;/div&gt;&lt;div&gt;-&amp;nbsp; std::vector&amp;lt;std::vector&amp;lt;std::vector&amp;lt;std::pair&amp;lt;float, float&amp;gt;&amp;gt;&amp;gt;&amp;gt; polygons;&lt;/div&gt;" style="text;strokeColor=none;fillColor=none;align=left;verticalAlign=top;spacingLeft=4;spacingRight=4;overflow=hidden;rotatable=0;points=[[0,0.5],[1,0.5]];portConstraint=eastwest;whiteSpace=wrap;html=1;" vertex="1" parent="j41M9WMoLJHoZTW-6EMn-6">
          <mxGeometry y="26" width="450" height="124" as="geometry" />
        </mxCell>
        <mxCell id="j41M9WMoLJHoZTW-6EMn-8" value="" style="line;strokeWidth=1;fillColor=none;align=left;verticalAlign=middle;spacingTop=-1;spacingLeft=3;spacingRight=3;rotatable=0;labelPosition=right;points=[];portConstraint=eastwest;strokeColor=inherit;" vertex="1" parent="j41M9WMoLJHoZTW-6EMn-6">
          <mxGeometry y="150" width="450" height="8" as="geometry" />
        </mxCell>
        <mxCell id="j41M9WMoLJHoZTW-6EMn-9" value="&lt;div&gt;+ Layer2d(VectorData data);&lt;/div&gt;&lt;div&gt;+&amp;nbsp; &amp;nbsp;~Layer2d();&lt;/div&gt;&lt;div&gt;+&amp;nbsp; void renderPoints();&lt;/div&gt;&lt;div&gt;+&amp;nbsp; void renderLinestrings();&lt;/div&gt;&lt;div&gt;+&amp;nbsp; void renderPolygons();&lt;/div&gt;&lt;div&gt;+&amp;nbsp; void calculateBoundingBox();&lt;/div&gt;&lt;div&gt;+&amp;nbsp; BoundingBox boundingBox;&lt;/div&gt;&lt;div&gt;+&amp;nbsp; bool isVisible = true;&lt;/div&gt;&lt;div&gt;+&amp;nbsp; std::string name = &quot;no name&quot;;&lt;/div&gt;" style="text;strokeColor=none;fillColor=none;align=left;verticalAlign=top;spacingLeft=4;spacingRight=4;overflow=hidden;rotatable=0;points=[[0,0.5],[1,0.5]];portConstraint=eastwest;whiteSpace=wrap;html=1;" vertex="1" parent="j41M9WMoLJHoZTW-6EMn-6">
          <mxGeometry y="158" width="450" height="162" as="geometry" />
        </mxCell>
        <mxCell id="j41M9WMoLJHoZTW-6EMn-12" value="" style="endArrow=classic;html=1;rounded=0;exitX=0;exitY=0.923;exitDx=0;exitDy=0;exitPerimeter=0;entryX=0.5;entryY=0;entryDx=0;entryDy=0;" edge="1" parent="1" source="T-lWKSoQIw2f4ri57Lx8-22" target="j41M9WMoLJHoZTW-6EMn-6">
          <mxGeometry width="50" height="50" relative="1" as="geometry">
            <mxPoint x="1760" y="-540" as="sourcePoint" />
            <mxPoint x="1699.800000000001" y="277.9999999999991" as="targetPoint" />
            <Array as="points">
              <mxPoint x="1650" y="-420" />
            </Array>
          </mxGeometry>
        </mxCell>
        <mxCell id="j41M9WMoLJHoZTW-6EMn-15" value="" style="endArrow=classic;html=1;rounded=0;exitX=0.423;exitY=1.002;exitDx=0;exitDy=0;exitPerimeter=0;entryX=0.5;entryY=0;entryDx=0;entryDy=0;" edge="1" parent="1" source="T-lWKSoQIw2f4ri57Lx8-24" target="T-lWKSoQIw2f4ri57Lx8-25">
          <mxGeometry width="50" height="50" relative="1" as="geometry">
            <mxPoint x="1970" y="80" as="sourcePoint" />
            <mxPoint x="2020" y="30" as="targetPoint" />
            <Array as="points">
              <mxPoint x="1970" y="90" />
            </Array>
          </mxGeometry>
        </mxCell>
        <mxCell id="j41M9WMoLJHoZTW-6EMn-16" value="" style="endArrow=classic;html=1;rounded=0;exitX=0.504;exitY=0.999;exitDx=0;exitDy=0;exitPerimeter=0;entryX=0.5;entryY=0;entryDx=0;entryDy=0;" edge="1" parent="1" source="T-lWKSoQIw2f4ri57Lx8-24" target="T-lWKSoQIw2f4ri57Lx8-30">
          <mxGeometry width="50" height="50" relative="1" as="geometry">
            <mxPoint x="2050" y="100" as="sourcePoint" />
            <mxPoint x="2100" y="50" as="targetPoint" />
            <Array as="points">
              <mxPoint x="2080" y="100" />
            </Array>
          </mxGeometry>
        </mxCell>
        <mxCell id="j41M9WMoLJHoZTW-6EMn-18" value="QLisqtWidjet" style="swimlane;fontStyle=1;align=center;verticalAlign=top;childLayout=stackLayout;horizontal=1;startSize=26;horizontalStack=0;resizeParent=1;resizeParentMax=0;resizeLast=0;collapsible=1;marginBottom=0;whiteSpace=wrap;html=1;" vertex="1" parent="1">
          <mxGeometry x="770" y="-430" width="160" height="86" as="geometry" />
        </mxCell>
        <mxCell id="j41M9WMoLJHoZTW-6EMn-19" value="+ field: type" style="text;strokeColor=none;fillColor=none;align=left;verticalAlign=top;spacingLeft=4;spacingRight=4;overflow=hidden;rotatable=0;points=[[0,0.5],[1,0.5]];portConstraint=eastwest;whiteSpace=wrap;html=1;" vertex="1" parent="j41M9WMoLJHoZTW-6EMn-18">
          <mxGeometry y="26" width="160" height="26" as="geometry" />
        </mxCell>
        <mxCell id="j41M9WMoLJHoZTW-6EMn-20" value="" style="line;strokeWidth=1;fillColor=none;align=left;verticalAlign=middle;spacingTop=-1;spacingLeft=3;spacingRight=3;rotatable=0;labelPosition=right;points=[];portConstraint=eastwest;strokeColor=inherit;" vertex="1" parent="j41M9WMoLJHoZTW-6EMn-18">
          <mxGeometry y="52" width="160" height="8" as="geometry" />
        </mxCell>
        <mxCell id="j41M9WMoLJHoZTW-6EMn-21" value="+ method(type): type" style="text;strokeColor=none;fillColor=none;align=left;verticalAlign=top;spacingLeft=4;spacingRight=4;overflow=hidden;rotatable=0;points=[[0,0.5],[1,0.5]];portConstraint=eastwest;whiteSpace=wrap;html=1;" vertex="1" parent="j41M9WMoLJHoZTW-6EMn-18">
          <mxGeometry y="60" width="160" height="26" as="geometry" />
        </mxCell>
        <mxCell id="j41M9WMoLJHoZTW-6EMn-22" value="" style="endArrow=classic;html=1;rounded=0;entryX=0.5;entryY=0;entryDx=0;entryDy=0;exitX=0.393;exitY=0.995;exitDx=0;exitDy=0;exitPerimeter=0;" edge="1" parent="1" source="T-lWKSoQIw2f4ri57Lx8-17" target="j41M9WMoLJHoZTW-6EMn-18">
          <mxGeometry width="50" height="50" relative="1" as="geometry">
            <mxPoint x="930" y="-520" as="sourcePoint" />
            <mxPoint x="990" y="-580" as="targetPoint" />
          </mxGeometry>
        </mxCell>
        <mxCell id="j41M9WMoLJHoZTW-6EMn-23" value="QPush Button" style="swimlane;fontStyle=1;align=center;verticalAlign=top;childLayout=stackLayout;horizontal=1;startSize=26;horizontalStack=0;resizeParent=1;resizeParentMax=0;resizeLast=0;collapsible=1;marginBottom=0;whiteSpace=wrap;html=1;" vertex="1" parent="1">
          <mxGeometry x="1220" y="-400" width="160" height="86" as="geometry" />
        </mxCell>
        <mxCell id="j41M9WMoLJHoZTW-6EMn-24" value="+ field: type" style="text;strokeColor=none;fillColor=none;align=left;verticalAlign=top;spacingLeft=4;spacingRight=4;overflow=hidden;rotatable=0;points=[[0,0.5],[1,0.5]];portConstraint=eastwest;whiteSpace=wrap;html=1;" vertex="1" parent="j41M9WMoLJHoZTW-6EMn-23">
          <mxGeometry y="26" width="160" height="26" as="geometry" />
        </mxCell>
        <mxCell id="j41M9WMoLJHoZTW-6EMn-25" value="" style="line;strokeWidth=1;fillColor=none;align=left;verticalAlign=middle;spacingTop=-1;spacingLeft=3;spacingRight=3;rotatable=0;labelPosition=right;points=[];portConstraint=eastwest;strokeColor=inherit;" vertex="1" parent="j41M9WMoLJHoZTW-6EMn-23">
          <mxGeometry y="52" width="160" height="8" as="geometry" />
        </mxCell>
        <mxCell id="j41M9WMoLJHoZTW-6EMn-26" value="+ method(type): type" style="text;strokeColor=none;fillColor=none;align=left;verticalAlign=top;spacingLeft=4;spacingRight=4;overflow=hidden;rotatable=0;points=[[0,0.5],[1,0.5]];portConstraint=eastwest;whiteSpace=wrap;html=1;" vertex="1" parent="j41M9WMoLJHoZTW-6EMn-23">
          <mxGeometry y="60" width="160" height="26" as="geometry" />
        </mxCell>
        <mxCell id="j41M9WMoLJHoZTW-6EMn-27" value="" style="endArrow=classic;html=1;rounded=0;exitX=0.523;exitY=1.002;exitDx=0;exitDy=0;exitPerimeter=0;entryX=0.5;entryY=0;entryDx=0;entryDy=0;" edge="1" parent="1" source="T-lWKSoQIw2f4ri57Lx8-17" target="j41M9WMoLJHoZTW-6EMn-23">
          <mxGeometry width="50" height="50" relative="1" as="geometry">
            <mxPoint x="1170" y="-450" as="sourcePoint" />
            <mxPoint x="1220" y="-500" as="targetPoint" />
          </mxGeometry>
        </mxCell>
        <mxCell id="j41M9WMoLJHoZTW-6EMn-28" value="Loader" style="swimlane;fontStyle=1;align=center;verticalAlign=top;childLayout=stackLayout;horizontal=1;startSize=26;horizontalStack=0;resizeParent=1;resizeParentMax=0;resizeLast=0;collapsible=1;marginBottom=0;whiteSpace=wrap;html=1;" vertex="1" parent="1">
          <mxGeometry x="170" y="380" width="540" height="258" as="geometry" />
        </mxCell>
        <mxCell id="j41M9WMoLJHoZTW-6EMn-29" value="+ field: type" style="text;strokeColor=none;fillColor=none;align=left;verticalAlign=top;spacingLeft=4;spacingRight=4;overflow=hidden;rotatable=0;points=[[0,0.5],[1,0.5]];portConstraint=eastwest;whiteSpace=wrap;html=1;" vertex="1" parent="j41M9WMoLJHoZTW-6EMn-28">
          <mxGeometry y="26" width="540" height="104" as="geometry" />
        </mxCell>
        <mxCell id="j41M9WMoLJHoZTW-6EMn-30" value="" style="line;strokeWidth=1;fillColor=none;align=left;verticalAlign=middle;spacingTop=-1;spacingLeft=3;spacingRight=3;rotatable=0;labelPosition=right;points=[];portConstraint=eastwest;strokeColor=inherit;" vertex="1" parent="j41M9WMoLJHoZTW-6EMn-28">
          <mxGeometry y="130" width="540" height="8" as="geometry" />
        </mxCell>
        <mxCell id="j41M9WMoLJHoZTW-6EMn-31" value="+ method(type): type" style="text;strokeColor=none;fillColor=none;align=left;verticalAlign=top;spacingLeft=4;spacingRight=4;overflow=hidden;rotatable=0;points=[[0,0.5],[1,0.5]];portConstraint=eastwest;whiteSpace=wrap;html=1;" vertex="1" parent="j41M9WMoLJHoZTW-6EMn-28">
          <mxGeometry y="138" width="540" height="120" as="geometry" />
        </mxCell>
        <mxCell id="j41M9WMoLJHoZTW-6EMn-32" value="" style="endArrow=classic;html=1;rounded=0;entryX=0;entryY=0.5;entryDx=0;entryDy=0;" edge="1" parent="1" target="T-lWKSoQIw2f4ri57Lx8-15">
          <mxGeometry width="50" height="50" relative="1" as="geometry">
            <mxPoint x="310" y="380" as="sourcePoint" />
            <mxPoint x="350" y="-820" as="targetPoint" />
            <Array as="points">
              <mxPoint x="240" y="-740" />
            </Array>
          </mxGeometry>
        </mxCell>
      </root>
    </mxGraphModel>
  </diagram>
</mxfile>
